<svg id="Ebene_1" data-name="Ebene 1" xmlns="http://www.w3.org/2000/svg" viewBox="0 0 210.37 65.58"><defs><style>.cls-1{fill:#8bb9e3;}.cls-2{fill:#181716;}</style></defs><path class="cls-1" d="M114.15,63h12.36L113.76,2.28H98.49L84.28,63H96.64s8.27-45.5,9-49.55h.29c.58,4,8.27,49.55,8.27,49.55"/><path class="cls-1" d="M72.82,63l15-60.72h-14L69.32,28.22c-1.17,6.85-2.24,14.15-3.11,21.35H66c-.87-7.11-2.23-14.5-3.3-21.08L58,2.28H43.93L58.52,63Z"/><path class="cls-1" d="M15.37,11.8a7.81,7.81,0,0,1,2.53-.27c7.69,0,11.19,7.57,11.19,20,0,16.76-5.35,22.34-11.48,22.34a9.42,9.42,0,0,1-2.24-.18Zm-12.74,51a80.08,80.08,0,0,0,10.6.72c9.05,0,15.47-2,20-5.85C38.92,53,42.32,44.23,42.32,32c0-11.8-2.92-19.82-8.56-24.5-4.18-3.61-9.92-5.41-18.19-5.41A63.18,63.18,0,0,0,2.63,3.24Z"/><path class="cls-2" d="M122.74,38.61a.77.77,0,0,1-.76-.83.79.79,0,0,1,.78-.82.83.83,0,0,1,0,1.65m2.29,0a.77.77,0,0,1-.77-.83A.79.79,0,0,1,125,37a.83.83,0,0,1,0,1.65m42.46.1a.77.77,0,0,1-.76-.83.79.79,0,0,1,.77-.82.83.83,0,0,1,0,1.65m2.27,0a.77.77,0,0,1-.77-.83.79.79,0,0,1,.78-.82.83.83,0,0,1,0,1.65M85.11,43h.32a1.46,1.46,0,0,0,1.48-1.5,1.23,1.23,0,0,0-1.39-1.38,3.16,3.16,0,0,0-.41,0Zm-29,.5h.29A1.54,1.54,0,0,0,58,41.78c0-1.09-.45-1.61-1.43-1.62l-.4,0Zm22.26,0h.29a1.54,1.54,0,0,0,1.55-1.73c0-1.09-.45-1.61-1.43-1.62l-.41,0Zm51.81,0h.3A1.54,1.54,0,0,0,132,41.78c0-1.09-.46-1.61-1.43-1.62l-.41,0Zm17,0h.29A1.54,1.54,0,0,0,149,41.78c0-1.09-.45-1.61-1.43-1.62l-.4,0Zm-55,1.25h1.38l-.45-2.2c-.09-.4-.16-.84-.24-1.27-.07.43-.16.88-.24,1.27Zm48.16,0h1.38l-.45-2.2c-.08-.4-.16-.83-.23-1.27-.09.5-.17.93-.25,1.27Zm27.53,0h1.38l-.45-2.2c-.08-.4-.16-.82-.23-1.27-.08.43-.16.88-.25,1.27ZM4,47.62h.23c1.43,0,2.18-1.36,2.18-3.93,0-2.34-.7-3.52-2.08-3.52a1.67,1.67,0,0,0-.33,0Zm102.51,0h.23c1.43,0,2.18-1.36,2.18-3.93,0-2.34-.7-3.52-2.08-3.52a1.67,1.67,0,0,0-.33,0Zm69-7.44c-1.31,0-1.41,2.85-1.41,3.72,0,2.34.53,3.73,1.42,3.73,1.23,0,1.36-2.63,1.36-3.76,0-.86-.09-3.69-1.37-3.69m12.47,0c-1.31,0-1.41,2.85-1.41,3.72,0,2.34.53,3.73,1.42,3.73,1.23,0,1.37-2.63,1.37-3.76,0-.86-.1-3.69-1.38-3.69M85.11,47.64a2.34,2.34,0,0,0,.38,0A1.54,1.54,0,0,0,87.16,46a1.65,1.65,0,0,0-1.75-1.77h-.3ZM14,48.82H9.85V39h4v1.28H11.27v2.78h2.38v1.26H11.27v3.22H14Zm11.76,0H24.31V40.3H22.58V39h4.89V40.3H25.74Zm20.68,0H45V44.38H42.67v4.44H41.25V39h1.42v4.06H45V39h1.43Zm6.45,0H48.73V39h4v1.28H50.16v2.78h2.38v1.26H50.16v3.22h2.71Zm6.92,0H58.32l0-.1a11.71,11.71,0,0,1-.53-2.38c-.22-1.38-.65-1.65-1.37-1.65h-.25v4.13H54.7V39.17l.13,0a6.19,6.19,0,0,1,1.59-.19,3,3,0,0,1,2.26.73,2.71,2.71,0,0,1,.72,2,2.66,2.66,0,0,1-1.32,2.45c.55.31.88,1,1.06,2.12a12.51,12.51,0,0,0,.53,2.35Zm7.28,0H65.69L63.44,39H65l.94,4.58c.17.83.36,1.75.52,2.64.14-.89.32-1.79.48-2.62l.94-4.6h1.51Zm8.06,0H71V39h4v1.28H72.43v2.78h2.38v1.26H72.43v3.22h2.7Zm6.93,0H80.58l0-.1A12,12,0,0,1,80,46.34c-.22-1.38-.65-1.65-1.38-1.65h-.25v4.13H77V39.17l.13,0a6.13,6.13,0,0,1,1.59-.19,3,3,0,0,1,2.26.73,2.74,2.74,0,0,1,.71,2,2.64,2.64,0,0,1-1.32,2.45c.56.31.88,1,1.07,2.12a13.26,13.26,0,0,0,.53,2.35Zm13.78,0H94.41L93.79,46H92l-.62,2.85H89.93L92.18,39h1.47Zm7,0h-1.3l-1.84-4.67c-.3-.73-.56-1.4-.77-2,0,.88,0,1.87,0,3.26v3.45H97.62V39h1.3l1.94,4.95c.23.59.48,1.23.7,1.85,0-1.11-.07-2.09-.07-3.24V39h1.31Zm14.16,0h-1.43V39h4v1.28H117v3h2.37v1.26H117Zm16.91,0h-1.48l0-.1a11.71,11.71,0,0,1-.53-2.38c-.22-1.38-.66-1.65-1.38-1.65h-.25v4.13h-1.41V39.17l.12,0a6.32,6.32,0,0,1,1.6-.19,3,3,0,0,1,2.26.73,2.74,2.74,0,0,1,.71,2,2.64,2.64,0,0,1-1.32,2.45c.56.31.88,1,1.07,2.12a11.62,11.62,0,0,0,.53,2.35Zm10.13,0h-1.42L142,46h-1.84l-.61,2.85H138.1l0-.21,2.2-9.62h1.47l0,.13Zm6.87,0H149.4l-.05-.1a11.71,11.71,0,0,1-.53-2.38c-.22-1.38-.65-1.65-1.38-1.65h-.24v4.13h-1.42V39.17l.13,0a6.19,6.19,0,0,1,1.59-.19,3,3,0,0,1,2.26.73,2.7,2.7,0,0,1,.71,2,2.64,2.64,0,0,1-1.32,2.45c.56.31.89,1,1.07,2.12a13.26,13.26,0,0,0,.53,2.35Zm13,0h-1.43V44.38h-2.32v4.44h-1.42V39h1.42v4.06h2.32V39h1.43Zm7.64,0h-1.42L169.49,46h-1.83L167,48.82h-1.41l0-.21,2.2-9.62h1.48l0,.13Zm12.82,0h-4.08V39h1.42v8.57h2.66Zm16.92,0h-1.43V39h1.43Zm6.48,0h-4.13V39h4v1.28H205v2.78h2.38v1.26H205v3.22h2.71ZM4,48.87a6.21,6.21,0,0,1-1.23-.1l-.13,0V39.17l.12,0a5,5,0,0,1,1.5-.2,3.34,3.34,0,0,1,2.34.77c.61.52,1.33,1.64,1.33,4a6,6,0,0,1-1.18,4.13A3.55,3.55,0,0,1,4,48.87m81.29,0a7.79,7.79,0,0,1-1.44-.1l-.14,0V39.17l.13,0a6.86,6.86,0,0,1,1.62-.19,3.1,3.1,0,0,1,2.21.71,2.49,2.49,0,0,1-.55,3.84A2.53,2.53,0,0,1,88.63,46a2.92,2.92,0,0,1-.72,2,3.34,3.34,0,0,1-2.63.91m21.22,0a6.21,6.21,0,0,1-1.23-.1l-.14,0V39.17l.13,0a5,5,0,0,1,1.5-.2,3.31,3.31,0,0,1,2.33.77c.61.52,1.34,1.64,1.34,4a6.06,6.06,0,0,1-1.18,4.13,3.55,3.55,0,0,1-2.75,1.06m-76.21,0a3.31,3.31,0,0,1-1.7-.44l-.09-.07.33-1.28.2.14a2.54,2.54,0,0,0,1.26.35,1.32,1.32,0,0,0,1.41-1.43c0-.79-.43-1.27-1.18-1.83a3.53,3.53,0,0,1-1.86-2.77,2.56,2.56,0,0,1,2.68-2.67,2.6,2.6,0,0,1,1.43.39l.09.07-.35,1.28-.2-.15a1.83,1.83,0,0,0-1-.29,1.14,1.14,0,0,0-1.2,1.18c0,.83.38,1.14,1.32,1.82a3.41,3.41,0,0,1,1.72,2.87,2.71,2.71,0,0,1-2.83,2.83m7.69,0c-2.1,0-3.35-1.83-3.35-4.89,0-3.77,1.91-5.11,3.54-5.11a2.51,2.51,0,0,1,1.26.27l.1.07-.32,1.23L39,40.39a1.79,1.79,0,0,0-.88-.19c-.94,0-2,1-2,3.72,0,2.37.73,3.68,2.06,3.68a2.52,2.52,0,0,0,.92-.18l.19-.09.25,1.24-.11.06A3.37,3.37,0,0,1,38,48.9m117.47,0c-2.13,0-3.35-1.78-3.35-4.89,0-3.77,1.91-5.11,3.54-5.11a2.51,2.51,0,0,1,1.26.27l.1.07-.32,1.23-.18-.08a1.79,1.79,0,0,0-.88-.19c-.94,0-2,1-2,3.72,0,2.37.73,3.68,2.06,3.68a2.52,2.52,0,0,0,.92-.18l.19-.09.25,1.24-.11.06a3.37,3.37,0,0,1-1.45.27m40.44,0a3,3,0,0,1-2.36-1,5.62,5.62,0,0,1-1.19-3.9c0-3.78,1.95-5.13,3.75-5.13a3,3,0,0,1,1.42.29l.12.07-.33,1.26-.19-.1a2.17,2.17,0,0,0-1-.2c-1.43,0-2.29,1.39-2.29,3.71s.76,3.7,2.08,3.7a2.12,2.12,0,0,0,.49-.05V44.76h-1.22V43.52h2.58v5l-.11,0a4.7,4.7,0,0,1-1.74.34m-177.58,0c-1.15,0-2.52-.6-2.52-3.45V39h1.42v6.53c0,1,.2,2.11,1.11,2.11.29,0,1.15,0,1.15-2.11V39H20.9v6.36c0,3-1.41,3.58-2.59,3.58m105.56,0c-1.15,0-2.52-.6-2.52-3.45V39h1.43v6.53c0,1,.19,2.11,1.1,2.11.29,0,1.16,0,1.16-2.11V39h1.42v6.36c0,3-1.41,3.58-2.59,3.58m51.56,0c-1.76,0-2.81-1.89-2.81-5s1.14-5,3-5,2.76,1.86,2.76,5c0,4.44-1.82,5.1-2.91,5.1m12.47,0c-1.76,0-2.81-1.89-2.81-5s1.14-5,3-5,2.76,1.86,2.76,5c0,4.44-1.82,5.1-2.91,5.1"/></svg>