<svg id="Ebene_1" data-name="Ebene 1"
  xmlns="http://www.w3.org/2000/svg" viewBox="0 0 204.86 143.14">
  <defs>
    <style>
      .cls-1 {
        fill: #f8d200;
      }

      .cls-2 {
        fill: #e30613;
      }
    </style>
  </defs>
  <g id="Foerderzusatz">
    <g>
      <path d="M9.73,6.91a2.59,2.59,0,0,0-1.28-.32c-1.28,0-2.53.84-2.53,3s1,3.14,2.36,3.14a3.33,3.33,0,0,0,1.21-.21V10.44l-.64-.14c-.11,0-.15-.06-.15-.12a1.11,1.11,0,0,1,.11-.32h2.4a1.05,1.05,0,0,1,0,.12c0,.17-.1.29-.36.37l-.24.06V12.6a3.72,3.72,0,0,1-2.6.82c-1.85,0-3.3-1.14-3.3-3.69a3.6,3.6,0,0,1,3.77-3.8,4.07,4.07,0,0,1,2,.47c0,.32.07,1,.07,1,0,.33-.1.54-.37.54a.93.93,0,0,1-.24,0Z"/>
      <path d="M13,10.78c0,1.3.63,1.91,1.54,1.91a1.88,1.88,0,0,0,1.31-.48.53.53,0,0,1,.16.35c0,.27-.7.86-1.86.86s-2.26-.73-2.26-2.56S13,8.1,14.19,8.1A1.64,1.64,0,0,1,16,9.88a3.91,3.91,0,0,1-.13.9Zm1.84-.56a2.25,2.25,0,0,0,.05-.45c0-.58-.21-1.07-.81-1.07s-1,.49-1.07,1.52Z"/>
      <path d="M19.82,8.8H18.54v3.93l.71.14c.11,0,.15.05.15.13a.61.61,0,0,1-.11.3H16.8a.56.56,0,0,1,0-.1c0-.19.13-.27.33-.34l.36-.13V8.8h-.78a.78.78,0,0,1,0-.09c0-.2.12-.3.32-.36l.47-.12V8.12c0-1.69,1-2.51,1.93-2.51.52,0,.73.23.73.56a.52.52,0,0,1-.31.49,1.06,1.06,0,0,0-.69-.3c-.46,0-.61.25-.61.87,0,.33,0,1,0,1h1.39Z"/>
      <path d="M25.22,10.72a2.51,2.51,0,0,1-2.55,2.7,2.32,2.32,0,0,1-2.39-2.6A2.55,2.55,0,0,1,22.87,8.1C24.19,8.1,25.22,8.89,25.22,10.72ZM21.81,7.38a.58.58,0,1,1,.57-.57A.55.55,0,0,1,21.81,7.38Zm-.41,3.38c0,1.4.57,2,1.35,2s1.35-.61,1.35-2-.58-2.06-1.35-2.06S21.4,9.34,21.4,10.76Zm2.31-3.38a.58.58,0,1,1,.56-.57A.55.55,0,0,1,23.71,7.38Z"/>
      <path d="M27.66,9.07h0c.22-.36.61-1,1.29-1,.5,0,.73.23.73.56a.9.9,0,0,1-.19.53,1.68,1.68,0,0,0-.7-.15,1.24,1.24,0,0,0-1.1.53v3.16l.76.14c.11,0,.15.05.15.13a.73.73,0,0,1-.11.3H26s0-.07,0-.1c0-.19.13-.27.33-.34l.37-.13V8.85l-.75-.12a.77.77,0,0,1,0-.1c0-.18.14-.31.39-.33l1.42-.14Z"/>
      <path d="M34.61,12.71l.77.1a.55.55,0,0,1,0,.09c0,.19-.14.31-.39.33l-1.39.13v-.68h0a1.74,1.74,0,0,1-1.49.74c-1,0-2-.66-2-2.48A2.63,2.63,0,0,1,32.81,8.1a2.81,2.81,0,0,1,.74.1V6.36l-.74-.11a1,1,0,0,1,0-.11c0-.18.13-.31.38-.33l1.43-.13ZM33.55,9.05a1.25,1.25,0,0,0-.88-.32c-.85,0-1.48.61-1.48,2s.59,1.9,1.29,1.9a1.34,1.34,0,0,0,1.07-.45Z"/>
      <path d="M37.1,10.78c0,1.3.63,1.91,1.53,1.91A1.91,1.91,0,0,0,40,12.21a.52.52,0,0,1,.15.35c0,.27-.69.86-1.85.86S36,12.69,36,10.86s1.1-2.76,2.3-2.76a1.63,1.63,0,0,1,1.78,1.78,3.9,3.9,0,0,1-.12.9Zm1.84-.56A2.25,2.25,0,0,0,39,9.77c0-.58-.21-1.07-.82-1.07s-1,.49-1.06,1.52Z"/>
      <path d="M42.55,9.07h0c.22-.36.61-1,1.29-1,.5,0,.73.23.73.56a.9.9,0,0,1-.19.53,1.68,1.68,0,0,0-.7-.15,1.23,1.23,0,0,0-1.1.53v3.16l.76.14c.1,0,.15.05.15.13a.73.73,0,0,1-.11.3H40.87s0-.07,0-.1c0-.19.13-.27.33-.34l.36-.13V8.85l-.74-.12a.77.77,0,0,1,0-.1c0-.18.13-.31.39-.33l1.42-.14Z"/>
      <path d="M48.13,8.8H46.69v3.07c0,.47.14.86.67.86a1.51,1.51,0,0,0,.83-.25.79.79,0,0,1,.09.35c0,.1-.36.59-1.32.59a1.2,1.2,0,0,1-1.33-1.36V8.8h-.79a.78.78,0,0,1,0-.09.36.36,0,0,1,.32-.36l.52-.12.24-1.42h.78V8.23h1.55Z"/>
      <path d="M55.5,12.71l.76.1a.55.55,0,0,1,0,.09c0,.19-.13.31-.39.33l-1.38.13v-.68h0a1.74,1.74,0,0,1-1.49.74c-1,0-2-.66-2-2.48A2.63,2.63,0,0,1,53.69,8.1a2.89,2.89,0,0,1,.75.1V6.36l-.75-.11a1,1,0,0,1,0-.11c0-.18.14-.31.39-.33l1.43-.13ZM54.44,9.05a1.27,1.27,0,0,0-.89-.32c-.85,0-1.48.61-1.48,2s.59,1.9,1.29,1.9a1.38,1.38,0,0,0,1.08-.45Z"/>
      <path d="M61.55,12.71l.77.1a.55.55,0,0,1,0,.09c0,.19-.14.31-.39.33l-1.38.13v-.69h0a1.88,1.88,0,0,1-1.56.75c-1.12,0-1.65-.66-1.65-1.9V8.85l-.74-.12a.77.77,0,0,1,0-.1c0-.18.13-.31.39-.33l1.42-.14v3.31c0,1,.51,1.18,1,1.18a1.41,1.41,0,0,0,1.13-.51V8.85l-.74-.12a.77.77,0,0,1,0-.1c0-.18.14-.31.39-.33l1.42-.14Z"/>
      <path d="M64.53,9.07h0c.22-.36.61-1,1.29-1,.49,0,.72.23.72.56a.83.83,0,0,1-.19.53,1.63,1.63,0,0,0-.7-.15,1.21,1.21,0,0,0-1.09.53v3.16l.76.14c.1,0,.14.05.14.13a.74.74,0,0,1-.1.3H62.85s0-.07,0-.1c0-.19.12-.27.32-.34l.37-.13V8.85l-.75-.12a.77.77,0,0,1,0-.1c0-.18.14-.31.39-.33l1.43-.14Z"/>
      <path d="M69.41,8.73c-.71,0-1.31.5-1.31,1.88s.51,2.09,1.5,2.09a1.63,1.63,0,0,0,1.19-.5.57.57,0,0,1,.17.35c0,.26-.58.87-1.73.87-1.37,0-2.25-.86-2.25-2.59A2.53,2.53,0,0,1,69.59,8.1C70.74,8.1,71,8.67,71,9a.59.59,0,0,1-.53.63A1.15,1.15,0,0,0,69.41,8.73Z"/>
      <path d="M73.3,8.86h0a2,2,0,0,1,1.62-.76c1,0,1.65.62,1.65,1.85v2.78l.61.14c.1,0,.15.05.15.13a.73.73,0,0,1-.11.3H74.86s0-.07,0-.1c0-.19.12-.28.32-.34l.35-.13V10.07c0-.89-.48-1.16-1-1.16a1.59,1.59,0,0,0-1.2.48v3.34l.59.14c.11,0,.15.05.15.13a.52.52,0,0,1-.11.3H71.55s0-.07,0-.1c0-.19.13-.28.33-.34l.36-.13V6.36l-.74-.11a1,1,0,0,1,0-.11c0-.18.13-.31.39-.33l1.43-.13Z"/>
      <path d="M78.7,9.39a.65.65,0,1,1,0-1.29.65.65,0,1,1,0,1.29Zm0,4a.65.65,0,1,1,0-1.29.65.65,0,1,1,0,1.29Z"/>
    </g>
    <g>
      <path d="M8.46,124.33c0,.42.16.55.33.55a.46.46,0,0,0,.4-.18.61.61,0,0,1,.13.31c0,.14-.27.55-1,.55a.8.8,0,0,1-.88-.74h0a1.53,1.53,0,0,1-1.37.76,1.31,1.31,0,0,1-1.37-1.38c0-1.12,1.23-1.54,2.4-1.54H7.4v-.47c0-1-.25-1.33-.91-1.33A1.58,1.58,0,0,0,6,121a3.51,3.51,0,0,0-.23.92l-.24,0c-.36,0-.56-.17-.56-.5,0-.65.86-1.14,1.84-1.14,1.15,0,1.69.63,1.69,1.81Zm-1.3-1.14c-.85,0-1.34.34-1.34.9a.65.65,0,0,0,.68.73,1.21,1.21,0,0,0,.9-.45v-1.19Z"/>
      <path d="M14.45,124.87l.77.1a.41.41,0,0,1,0,.09c0,.18-.14.31-.39.33l-1.38.13v-.7h0a1.86,1.86,0,0,1-1.55.76c-1.12,0-1.65-.66-1.65-1.9V121l-.74-.11a.8.8,0,0,1,0-.11c0-.18.13-.3.39-.32l1.42-.14v3.31c0,1,.51,1.17,1,1.17a1.45,1.45,0,0,0,1.13-.5V121l-.74-.11a.8.8,0,0,1,0-.11c0-.18.13-.3.38-.32l1.43-.14Z"/>
      <path d="M18.79,121H17.51v3.93l.71.13c.11,0,.15.06.15.14a.49.49,0,0,1-.11.29H15.77a.78.78,0,0,1,0-.09c0-.19.12-.27.32-.35l.36-.12V121h-.78a.78.78,0,0,1,0-.09c0-.2.13-.31.33-.36l.46-.13v-.1c0-1.69,1-2.51,1.93-2.51.52,0,.73.23.73.56a.52.52,0,0,1-.31.49,1,1,0,0,0-.69-.3c-.45,0-.61.25-.61.87,0,.32,0,1,0,1h1.4Z"/>
      <path d="M24,121h-.85a1.54,1.54,0,0,1,.32,1,1.83,1.83,0,0,1-2.06,1.74,2.65,2.65,0,0,1-.5-.05.54.54,0,0,0-.29.47c0,.25.17.37.52.37h1.22c1,0,1.51.44,1.51,1.19,0,1-1,2-2.8,2-1.29,0-1.92-.45-1.92-1.22a1.26,1.26,0,0,1,.95-1.19v0a.78.78,0,0,1-.43-.73,1.2,1.2,0,0,1,.76-1v0a1.61,1.61,0,0,1-1-1.55c0-1.11.93-1.68,2-1.68a2.86,2.86,0,0,1,.82.12h1.83Zm-3,4.43-.38,0a.85.85,0,0,0-.45.78c0,.54.33.89,1.1.89,1,0,1.65-.47,1.65-1s-.25-.62-.78-.62ZM20.54,122c0,.83.42,1.15.95,1.15s1-.32,1-1.15-.41-1.12-.95-1.12S20.54,121.14,20.54,122Z"/>
      <path d="M26.25,121.22h0c.22-.35.61-1,1.29-1,.49,0,.72.23.72.55a.89.89,0,0,1-.19.54,1.59,1.59,0,0,0-.7-.16,1.2,1.2,0,0,0-1.09.54v3.16l.75.13c.11,0,.15.06.15.14a.69.69,0,0,1-.1.29H24.58a.41.41,0,0,1,0-.09c0-.19.13-.27.33-.35l.37-.12V121l-.75-.11a.8.8,0,0,1,0-.11c0-.18.14-.3.39-.32l1.43-.14Z"/>
      <path d="M33.51,124.87l.77.1a.41.41,0,0,1,0,.09c0,.18-.14.31-.39.33l-1.39.13v-.7h0a1.88,1.88,0,0,1-1.55.76c-1.12,0-1.65-.66-1.65-1.9V121l-.74-.11a.42.42,0,0,1,0-.11c0-.18.14-.3.39-.32l1.43-.14v3.31c0,1,.5,1.17,1,1.17a1.45,1.45,0,0,0,1.13-.5V121l-.75-.11a.8.8,0,0,1,0-.11c0-.18.14-.3.39-.32l1.43-.14Z"/>
      <path d="M39.83,124.89l.62.13c.11,0,.15.06.15.14a.67.67,0,0,1-.11.29H38.11a.78.78,0,0,1,0-.09c0-.19.13-.28.32-.35l.35-.12v-2.66c0-.89-.5-1.16-1-1.16a1.82,1.82,0,0,0-1.2.46v3.36l.59.13c.11,0,.15.06.15.14a.69.69,0,0,1-.1.29H34.8a.78.78,0,0,1,0-.09c0-.19.13-.27.33-.35l.37-.12V121l-.75-.11a.8.8,0,0,1,0-.11c0-.18.14-.3.39-.32l1.43-.14-.07.74h0a2.17,2.17,0,0,1,1.73-.8c1,0,1.59.66,1.59,1.85Z"/>
      <path d="M45.65,124.87l.76.1a.41.41,0,0,1,0,.09c0,.18-.13.31-.38.33l-1.39.13v-.69h0a1.72,1.72,0,0,1-1.49.75c-1,0-2-.66-2-2.49a2.63,2.63,0,0,1,2.71-2.83,3.4,3.4,0,0,1,.75.09v-1.83l-.75-.11a1.05,1.05,0,0,1,0-.12c0-.17.14-.3.39-.32l1.43-.14Zm-1.06-3.67a1.29,1.29,0,0,0-.88-.31c-.85,0-1.48.61-1.48,2s.58,1.9,1.29,1.9a1.35,1.35,0,0,0,1.07-.44Z"/>
      <path d="M50.32,122.93c0,1.31.63,1.92,1.53,1.92a1.91,1.91,0,0,0,1.32-.49.54.54,0,0,1,.15.36c0,.26-.69.86-1.86.86s-2.25-.73-2.25-2.56,1.1-2.76,2.3-2.76A1.63,1.63,0,0,1,53.29,122a3.9,3.9,0,0,1-.12.9Zm1.84-.55a2.35,2.35,0,0,0,.05-.45c0-.58-.21-1.07-.82-1.07s-1,.49-1.06,1.52Z"/>
      <path d="M55.83,124.89l.62.13c.11,0,.15.06.15.14a.67.67,0,0,1-.11.29h-2.4a.78.78,0,0,1,0-.09c0-.19.13-.27.33-.35l.36-.12V121l-.74-.11a.8.8,0,0,1,0-.11c0-.18.13-.3.39-.32l1.42-.14Zm-.53-5.61a.67.67,0,1,1,0-1.34.67.67,0,1,1,0,1.34Z"/>
      <path d="M62.16,124.89l.62.13c.11,0,.15.06.15.14a.69.69,0,0,1-.1.29H60.44a.78.78,0,0,1,0-.09c0-.19.13-.28.33-.35l.34-.12v-2.66c0-.89-.5-1.16-1-1.16a1.85,1.85,0,0,0-1.21.46v3.36l.6.13c.1,0,.14.06.14.14a.69.69,0,0,1-.1.29H57.13a.78.78,0,0,1,0-.09c0-.19.13-.27.33-.35l.37-.12V121l-.75-.11a.8.8,0,0,1,0-.11c0-.18.14-.3.39-.32l1.43-.14-.07.74h0a2.13,2.13,0,0,1,1.72-.8c1,0,1.59.66,1.59,1.85Z"/>
      <path d="M64.58,122.93c0,1.31.63,1.92,1.53,1.92a1.88,1.88,0,0,0,1.31-.49.51.51,0,0,1,.16.36c0,.26-.69.86-1.86.86s-2.25-.73-2.25-2.56,1.1-2.76,2.3-2.76A1.63,1.63,0,0,1,67.55,122a3.43,3.43,0,0,1-.13.9Zm1.84-.55a2.35,2.35,0,0,0,0-.45c0-.58-.21-1.07-.82-1.07s-1,.49-1.06,1.52Z"/>
      <path d="M70.84,121a1.32,1.32,0,0,0-.7-.2c-.34,0-.7.14-.7.58s.49.74,1,1,1.3.79,1.3,1.63-.71,1.51-1.87,1.51a2.9,2.9,0,0,1-1.33-.31,5.56,5.56,0,0,1-.08-.81c0-.42.12-.59.43-.59H69l.22.89A1.4,1.4,0,0,0,70,125c.51,0,.84-.2.84-.64s-.51-.7-1-1c-.64-.41-1.28-.81-1.28-1.72s.71-1.36,1.72-1.36a1.84,1.84,0,0,1,1.23.39,4.35,4.35,0,0,1,0,.57c0,.37-.07.61-.45.61H71Z"/>
      <path d="M78.62,121.71v0c1,.17,1.69.74,1.69,1.7,0,1.17-1,2-2.86,2H74.79a.42.42,0,0,1,0-.11c0-.17.09-.32.36-.38l.44-.1v-6.07l-.64-.15c-.1,0-.14,0-.14-.11a1,1,0,0,1,.11-.32h2.47c1.87,0,2.76.66,2.76,1.83A1.64,1.64,0,0,1,78.62,121.71Zm-1.35-2.86h-.56v2.65h.55c1.2,0,1.7-.59,1.7-1.34S78.43,118.85,77.27,118.85Zm.13,3.26h-.69v2.7h.63c1.22,0,1.77-.57,1.77-1.39S78.53,122.11,77.4,122.11Z"/>
      <path d="M82.38,122.93c0,1.31.63,1.92,1.53,1.92a1.88,1.88,0,0,0,1.31-.49.51.51,0,0,1,.16.36c0,.26-.69.86-1.86.86s-2.26-.73-2.26-2.56,1.11-2.76,2.3-2.76A1.63,1.63,0,0,1,85.35,122a3.43,3.43,0,0,1-.13.9Zm1.83-.55a2.23,2.23,0,0,0,.06-.45c0-.58-.21-1.07-.82-1.07s-1,.49-1.06,1.52Z"/>
      <path d="M88.63,121a1.25,1.25,0,0,0-.69-.2c-.35,0-.7.14-.7.58s.49.74,1,1,1.3.79,1.3,1.63-.72,1.51-1.87,1.51a2.9,2.9,0,0,1-1.33-.31,4.45,4.45,0,0,1-.08-.81c0-.42.12-.59.43-.59h.14l.22.89a1.36,1.36,0,0,0,.71.21c.52,0,.84-.2.84-.64s-.5-.7-1-1c-.64-.41-1.28-.81-1.28-1.72s.71-1.36,1.72-1.36a1.84,1.84,0,0,1,1.23.39,4.35,4.35,0,0,1,0,.57c0,.37-.08.61-.45.61h-.13Z"/>
      <path d="M92.79,120.89c-.7,0-1.31.5-1.31,1.88s.51,2.09,1.5,2.09a1.64,1.64,0,0,0,1.2-.51.66.66,0,0,1,.17.36c0,.26-.58.87-1.74.87-1.36,0-2.24-.86-2.24-2.59a2.52,2.52,0,0,1,2.6-2.73c1.16,0,1.45.57,1.45.87a.61.61,0,0,1-.54.63A1.13,1.13,0,0,0,92.79,120.89Z"/>
      <path d="M96.69,121h0a2,2,0,0,1,1.62-.75c1,0,1.64.62,1.64,1.85v2.78l.61.13c.11,0,.15.06.15.14a.69.69,0,0,1-.1.29H98.24a.78.78,0,0,1,0-.09c0-.19.13-.28.33-.35l.34-.12v-2.66c0-.89-.48-1.16-1-1.16a1.56,1.56,0,0,0-1.19.48v3.34l.59.13c.1,0,.14.06.14.14a.57.57,0,0,1-.1.29H94.93a.78.78,0,0,1,0-.09c0-.19.13-.28.33-.35l.37-.12v-6.37l-.75-.11a1.05,1.05,0,0,1,0-.12c0-.17.14-.3.39-.32l1.44-.14Z"/>
      <path d="M102.86,124.89l.61.13c.11,0,.15.06.15.14a.57.57,0,0,1-.11.29h-2.39a.78.78,0,0,1,0-.09c0-.19.12-.28.32-.35l.37-.12v-6.37l-.74-.11a1.05,1.05,0,0,1,0-.12c0-.17.13-.3.38-.32l1.43-.14Z"/>
      <path d="M109,124.87l.77.1a.41.41,0,0,1,0,.09c0,.18-.14.31-.39.33l-1.39.13v-.7h0a1.86,1.86,0,0,1-1.55.76c-1.12,0-1.65-.66-1.65-1.9V121l-.74-.11a.8.8,0,0,1,0-.11c0-.18.13-.3.38-.32l1.43-.14v3.31c0,1,.51,1.17,1,1.17a1.45,1.45,0,0,0,1.13-.5V121l-.74-.11a.8.8,0,0,1,0-.11c0-.18.13-.3.38-.32l1.43-.14Z"/>
      <path d="M112.74,121a1.28,1.28,0,0,0-.69-.2c-.35,0-.7.14-.7.58s.49.74,1,1,1.3.79,1.3,1.63-.71,1.51-1.86,1.51a3,3,0,0,1-1.34-.31,5.54,5.54,0,0,1-.07-.81c0-.42.12-.59.43-.59h.14l.22.89a1.36,1.36,0,0,0,.71.21c.51,0,.84-.2.84-.64s-.5-.7-1-1c-.64-.41-1.28-.81-1.28-1.72s.72-1.36,1.72-1.36a1.84,1.84,0,0,1,1.23.39,4.16,4.16,0,0,1,0,.57c0,.37-.08.61-.46.61h-.12Z"/>
      <path d="M116.88,121a1.31,1.31,0,0,0-.69-.2c-.35,0-.71.14-.71.58s.5.74,1,1,1.3.79,1.3,1.63-.71,1.51-1.87,1.51a2.93,2.93,0,0,1-1.33-.31,5.54,5.54,0,0,1-.07-.81c0-.42.11-.59.43-.59h.13l.22.89a1.4,1.4,0,0,0,.72.21c.51,0,.84-.2.84-.64s-.51-.7-1-1c-.64-.41-1.28-.81-1.28-1.72s.71-1.36,1.72-1.36a1.84,1.84,0,0,1,1.23.39,4.35,4.35,0,0,1,0,.57c0,.37-.07.61-.45.61H117Z"/>
      <path d="M119.72,122.93c0,1.31.63,1.92,1.54,1.92a1.88,1.88,0,0,0,1.31-.49.56.56,0,0,1,.16.36c0,.26-.7.86-1.86.86s-2.26-.73-2.26-2.56,1.1-2.76,2.3-2.76A1.63,1.63,0,0,1,122.7,122a3.91,3.91,0,0,1-.13.9Zm1.84-.55a2.35,2.35,0,0,0,0-.45c0-.58-.21-1.07-.81-1.07s-1,.49-1.07,1.52Z"/>
      <path d="M126,121a1.28,1.28,0,0,0-.69-.2c-.35,0-.7.14-.7.58s.49.74,1,1,1.3.79,1.3,1.63-.71,1.51-1.86,1.51a3,3,0,0,1-1.34-.31,5.54,5.54,0,0,1-.07-.81c0-.42.12-.59.43-.59h.14l.22.89a1.36,1.36,0,0,0,.71.21c.52,0,.84-.2.84-.64s-.5-.7-1-1c-.64-.41-1.28-.81-1.28-1.72s.72-1.36,1.73-1.36a1.83,1.83,0,0,1,1.22.39,3,3,0,0,1,0,.57c0,.37-.08.61-.46.61h-.12Z"/>
      <path d="M9.3,136.87l.76.1a.41.41,0,0,1,0,.09c0,.18-.13.31-.38.33l-1.39.13v-.68h0a1.74,1.74,0,0,1-1.49.74c-1,0-2-.66-2-2.49a2.63,2.63,0,0,1,2.71-2.83,3.4,3.4,0,0,1,.75.09v-1.83l-.75-.11a1.05,1.05,0,0,1,0-.12c0-.17.14-.3.39-.32l1.43-.14ZM8.24,133.2a1.29,1.29,0,0,0-.88-.31c-.86,0-1.48.61-1.48,2s.58,1.9,1.29,1.9a1.35,1.35,0,0,0,1.07-.44Z"/>
      <path d="M11.79,134.94c0,1.3.63,1.91,1.53,1.91a1.88,1.88,0,0,0,1.31-.49.53.53,0,0,1,.16.36c0,.26-.69.86-1.86.86s-2.26-.73-2.26-2.56,1.11-2.76,2.3-2.76A1.63,1.63,0,0,1,14.76,134a3.51,3.51,0,0,1-.13.91Zm1.83-.56a2.23,2.23,0,0,0,.06-.45c0-.58-.21-1.07-.82-1.07s-1,.49-1.06,1.52Z"/>
      <path d="M18,133a1.25,1.25,0,0,0-.69-.2c-.35,0-.7.14-.7.58s.49.74,1,1,1.31.79,1.31,1.63-.72,1.51-1.87,1.51a2.86,2.86,0,0,1-1.33-.31,4.45,4.45,0,0,1-.08-.81c0-.42.12-.59.43-.59h.14l.22.89a1.36,1.36,0,0,0,.71.21c.52,0,.84-.2.84-.64s-.5-.7-1-1c-.64-.4-1.29-.81-1.29-1.72s.72-1.36,1.73-1.36a1.84,1.84,0,0,1,1.23.39,4.35,4.35,0,0,1,0,.57c0,.37-.08.61-.45.61h-.13Z"/>
      <path d="M24.37,137.45H22a.8.8,0,0,1,0-.11c0-.17.09-.32.36-.38l.44-.1v-6.07l-.64-.15c-.11,0-.15,0-.15-.11a1,1,0,0,1,.12-.32h2.26c2.64,0,4.23,1,4.23,3.52S27,137.45,24.37,137.45Zm0-6.6h-.42v6h.42a2.73,2.73,0,0,0,3.06-3.05C27.39,131.8,26.26,130.85,24.33,130.85Z"/>
      <path d="M30.64,134.94c0,1.3.63,1.91,1.54,1.91a1.88,1.88,0,0,0,1.31-.49.58.58,0,0,1,.16.36c0,.26-.7.86-1.86.86s-2.26-.73-2.26-2.56,1.1-2.76,2.3-2.76A1.63,1.63,0,0,1,33.62,134a4,4,0,0,1-.13.91Zm1.84-.56a2.35,2.35,0,0,0,.05-.45c0-.58-.21-1.07-.82-1.07s-1,.49-1.06,1.52Z"/>
      <path d="M39.18,136.87l.77.1a.41.41,0,0,1,0,.09c0,.18-.14.31-.39.33l-1.39.13v-.69h0a1.87,1.87,0,0,1-1.55.75c-1.12,0-1.65-.66-1.65-1.9V133l-.75-.11a.8.8,0,0,1,0-.11c0-.17.14-.3.39-.32l1.43-.14v3.31c0,1,.5,1.17,1,1.17a1.45,1.45,0,0,0,1.13-.5V133l-.75-.11a.8.8,0,0,1,0-.11c0-.17.14-.3.39-.32l1.43-.14Z"/>
      <path d="M43.56,133H42.12V136c0,.47.15.86.67.86a1.48,1.48,0,0,0,.83-.25.79.79,0,0,1,.1.34c0,.11-.37.6-1.33.6a1.21,1.21,0,0,1-1.33-1.36V133h-.79a.78.78,0,0,1,0-.09.36.36,0,0,1,.33-.36l.51-.13.24-1.41h.78v1.41h1.55Z"/>
      <path d="M46.64,133a1.32,1.32,0,0,0-.7-.2c-.34,0-.7.14-.7.58s.49.74,1,1,1.3.79,1.3,1.63-.72,1.51-1.87,1.51a2.9,2.9,0,0,1-1.33-.31,4.45,4.45,0,0,1-.08-.81c0-.42.12-.59.43-.59h.14l.22.89a1.39,1.39,0,0,0,.71.21c.52,0,.84-.2.84-.64s-.5-.7-1-1c-.64-.4-1.28-.81-1.28-1.72s.71-1.36,1.72-1.36a1.84,1.84,0,0,1,1.23.39,4.35,4.35,0,0,1,0,.57c0,.37-.07.61-.45.61h-.13Z"/>
      <path d="M50.79,132.89c-.7,0-1.31.5-1.31,1.88s.52,2.09,1.5,2.09a1.64,1.64,0,0,0,1.2-.51.69.69,0,0,1,.17.36c0,.26-.58.87-1.74.87-1.36,0-2.24-.86-2.24-2.59a2.52,2.52,0,0,1,2.6-2.73c1.16,0,1.45.57,1.45.87a.61.61,0,0,1-.54.63A1.13,1.13,0,0,0,50.79,132.89Z"/>
      <path d="M54.69,133h0a2,2,0,0,1,1.62-.75c1.05,0,1.64.62,1.64,1.85v2.78l.61.13c.11,0,.15.06.15.14a.69.69,0,0,1-.1.29H56.24a.78.78,0,0,1,0-.09c0-.19.13-.28.33-.35l.34-.12v-2.66c0-.89-.48-1.16-1-1.16a1.56,1.56,0,0,0-1.19.48v3.34l.59.13c.1,0,.14.06.14.14a.57.57,0,0,1-.1.29H52.93a.78.78,0,0,1,0-.09c0-.19.13-.28.33-.35l.37-.12v-6.37l-.75-.11a1.05,1.05,0,0,1,0-.12c0-.17.14-.3.39-.32l1.44-.14Z"/>
      <path d="M60.38,134.94c0,1.3.63,1.91,1.53,1.91a1.88,1.88,0,0,0,1.31-.49.53.53,0,0,1,.16.36c0,.26-.69.86-1.86.86s-2.25-.73-2.25-2.56,1.1-2.76,2.3-2.76A1.63,1.63,0,0,1,63.35,134a3.51,3.51,0,0,1-.13.91Zm1.84-.56a2.35,2.35,0,0,0,.05-.45c0-.58-.21-1.07-.82-1.07s-1,.49-1.06,1.52Z"/>
      <path d="M69.18,136.89l.62.13c.1,0,.14.06.14.14a.69.69,0,0,1-.1.29H67.46a.78.78,0,0,1,0-.09c0-.19.12-.28.32-.35l.35-.12v-2.66c0-.89-.51-1.16-1-1.16a1.85,1.85,0,0,0-1.21.46v3.36l.6.13c.11,0,.15.06.15.14a.67.67,0,0,1-.11.29H64.15a.78.78,0,0,1,0-.09c0-.19.12-.27.32-.35l.37-.12V133l-.74-.11a.8.8,0,0,1,0-.11c0-.17.13-.3.38-.32l1.43-.14-.06.74h0a2.15,2.15,0,0,1,1.72-.8c1,0,1.6.66,1.6,1.85Z"/>
      <path d="M76.53,133.71v0c1,.17,1.69.74,1.69,1.7,0,1.17-1,2-2.86,2H72.7a.42.42,0,0,1,0-.11c0-.17.09-.32.36-.38l.44-.1v-6.07l-.64-.15c-.1,0-.14,0-.14-.11a1,1,0,0,1,.11-.32h2.47c1.87,0,2.76.66,2.76,1.83A1.64,1.64,0,0,1,76.53,133.71Zm-1.35-2.86h-.56v2.65h.55c1.2,0,1.7-.59,1.7-1.34S76.34,130.85,75.18,130.85Zm.13,3.26h-.69v2.7h.63c1.22,0,1.77-.57,1.77-1.39S76.44,134.11,75.31,134.11Z"/>
      <path d="M83.86,136.87l.76.1a.41.41,0,0,1,0,.09c0,.18-.13.31-.38.33l-1.39.13v-.69h0a1.87,1.87,0,0,1-1.55.75c-1.13,0-1.65-.66-1.65-1.9V133l-.75-.11a.8.8,0,0,1,0-.11c0-.17.14-.3.39-.32l1.43-.14v3.31c0,1,.5,1.17,1,1.17a1.46,1.46,0,0,0,1.14-.5V133l-.75-.11a.8.8,0,0,1,0-.11c0-.17.14-.3.39-.32l1.43-.14Z"/>
      <path d="M90.18,136.89l.62.13c.1,0,.14.06.14.14a.69.69,0,0,1-.1.29H88.46a.41.41,0,0,1,0-.09c0-.19.13-.28.33-.35l.35-.12v-2.66c0-.89-.51-1.16-1-1.16a1.85,1.85,0,0,0-1.21.46v3.36l.6.13c.1,0,.15.06.15.14a.67.67,0,0,1-.11.29H85.15a.78.78,0,0,1,0-.09c0-.19.12-.27.32-.35l.37-.12V133l-.74-.11a.8.8,0,0,1,0-.11c0-.17.13-.3.38-.32l1.43-.14-.06.74h0a2.15,2.15,0,0,1,1.72-.8c1,0,1.6.66,1.6,1.85Z"/>
      <path d="M96,136.87l.76.1a.41.41,0,0,1,0,.09c0,.18-.14.31-.39.33l-1.38.13v-.68h0a1.75,1.75,0,0,1-1.49.74c-1,0-2-.66-2-2.49a2.63,2.63,0,0,1,2.71-2.83,3.3,3.3,0,0,1,.74.09v-1.83l-.74-.11a1.05,1.05,0,0,1,0-.12c0-.17.14-.3.39-.32l1.43-.14Zm-1.07-3.67a1.27,1.27,0,0,0-.88-.31c-.85,0-1.48.61-1.48,2s.59,1.9,1.29,1.9a1.34,1.34,0,0,0,1.07-.44Z"/>
      <path d="M98.48,134.94c0,1.3.63,1.91,1.54,1.91a1.88,1.88,0,0,0,1.31-.49.58.58,0,0,1,.16.36c0,.26-.7.86-1.86.86s-2.26-.73-2.26-2.56,1.1-2.76,2.3-2.76a1.62,1.62,0,0,1,1.78,1.77,4,4,0,0,1-.12.91Zm1.84-.56a2.35,2.35,0,0,0,.05-.45c0-.58-.21-1.07-.82-1.07s-1,.49-1.06,1.52Z"/>
      <path d="M104.74,133a1.28,1.28,0,0,0-.69-.2c-.35,0-.71.14-.71.58s.5.74,1,1,1.3.79,1.3,1.63-.71,1.51-1.86,1.51a3,3,0,0,1-1.34-.31,5.54,5.54,0,0,1-.07-.81c0-.42.11-.59.43-.59h.14l.22.89a1.36,1.36,0,0,0,.71.21c.51,0,.84-.2.84-.64s-.5-.7-1-1c-.64-.4-1.28-.81-1.28-1.72s.72-1.36,1.72-1.36a1.84,1.84,0,0,1,1.23.39,4.35,4.35,0,0,1,0,.57c0,.37-.07.61-.45.61h-.12Z"/>
      <path d="M109.48,133H108V136c0,.47.14.86.67.86a1.48,1.48,0,0,0,.83-.25.78.78,0,0,1,.09.34c0,.11-.36.6-1.32.6a1.21,1.21,0,0,1-1.33-1.36V133h-.79a.78.78,0,0,1,0-.09.36.36,0,0,1,.32-.36l.52-.13.24-1.41H108v1.41h1.55Z"/>
      <path d="M113.82,136.33c0,.42.16.55.34.55a.47.47,0,0,0,.4-.18.69.69,0,0,1,.12.31c0,.14-.27.55-1,.55a.79.79,0,0,1-.88-.73h0a1.56,1.56,0,0,1-1.38.75,1.3,1.3,0,0,1-1.36-1.37c0-1.13,1.22-1.55,2.4-1.55h.27v-.47c0-1-.25-1.33-.9-1.33a1.71,1.71,0,0,0-.54.1,4.48,4.48,0,0,0-.23.93h-.24c-.35,0-.55-.17-.55-.5,0-.65.86-1.14,1.83-1.14,1.16,0,1.69.63,1.69,1.81Zm-1.3-1.14c-.85,0-1.33.34-1.33.9a.66.66,0,0,0,.68.74,1.19,1.19,0,0,0,.89-.46v-1.19Z"/>
      <path d="M119.79,133h-.85a1.54,1.54,0,0,1,.32,1c0,1.11-.92,1.74-2.07,1.74a2.63,2.63,0,0,1-.49-.05.52.52,0,0,0-.29.47c0,.25.17.37.52.37h1.22c1,0,1.51.44,1.51,1.19,0,1.05-1,2-2.8,2-1.29,0-1.92-.45-1.92-1.22a1.25,1.25,0,0,1,1-1.19v0a.78.78,0,0,1-.43-.73,1.2,1.2,0,0,1,.76-1v0a1.61,1.61,0,0,1-1-1.55,1.77,1.77,0,0,1,2-1.68,2.86,2.86,0,0,1,.82.12h1.83Zm-3,4.43-.38,0a.86.86,0,0,0-.46.78c0,.54.34.89,1.11.89,1,0,1.64-.47,1.64-1s-.24-.62-.77-.62ZM116.3,134c0,.83.42,1.15,1,1.15s1-.32,1-1.15-.41-1.12-1-1.12S116.3,133.14,116.3,134Z"/>
      <path d="M121.53,134.94c0,1.3.63,1.91,1.53,1.91a1.91,1.91,0,0,0,1.32-.49.56.56,0,0,1,.15.36c0,.26-.69.86-1.86.86s-2.25-.73-2.25-2.56,1.1-2.76,2.3-2.76A1.63,1.63,0,0,1,124.5,134a4,4,0,0,1-.12.91Zm1.84-.56a2.35,2.35,0,0,0,0-.45c0-.58-.21-1.07-.82-1.07s-1,.49-1.06,1.52Z"/>
      <path d="M127.79,133a1.32,1.32,0,0,0-.7-.2c-.34,0-.7.14-.7.58s.49.74,1,1,1.3.79,1.3,1.63-.71,1.51-1.87,1.51a2.9,2.9,0,0,1-1.33-.31,5.54,5.54,0,0,1-.07-.81c0-.42.11-.59.43-.59H126l.22.89a1.4,1.4,0,0,0,.72.21c.51,0,.84-.2.84-.64s-.51-.7-1-1c-.64-.4-1.28-.81-1.28-1.72s.71-1.36,1.72-1.36a1.84,1.84,0,0,1,1.23.39,4.35,4.35,0,0,1,0,.57c0,.37-.07.61-.45.61h-.13Z"/>
    </g>
  </g>
  <g id="Bildwortmarke">
    <polygon class="cls-1" points="35.64 76.04 37.14 76.04 37.14 96.04 33.64 96.04 33.64 76.04 35.64 76.04"/>
    <polygon class="cls-2" points="35.64 55.94 37.14 55.94 37.14 76.04 33.64 76.04 33.64 55.94 35.64 55.94"/>
    <path d="M24.53,43a2.83,2.83,0,0,0,3,1.59,8.84,8.84,0,0,1-2-2.25l-1.87-3A4.36,4.36,0,0,0,22.34,37a2.31,2.31,0,0,0,.57-.28,29.3,29.3,0,0,1-3.1-.62.62.62,0,0,0-.7.59c0,.38.41.76,1.13.76a3.67,3.67,0,0,0,.6-.06,2.92,2.92,0,0,1,.7,1.73c0,1.31-1.57,2.33-3.15,2.33h-.26a3.43,3.43,0,0,1-.62-1.49c0-1,.67-1.89.67-2.92a1.91,1.91,0,0,0-.43-1.2,1.78,1.78,0,0,0,.46-.55,1.33,1.33,0,0,1-.44.05c-.76,0-1.38-.2-2-.2-.34,0-.44.11-.44.21a.17.17,0,0,0,0,.09,2.5,2.5,0,0,0-.39-.11,3.48,3.48,0,0,0-.58-.05c-.73,0-1,.31-1,.57a2.21,2.21,0,0,0,.38.94,2.23,2.23,0,0,1,.78-.24c.39,0,.73.37.92.81a3.69,3.69,0,0,1-.58,0,4.51,4.51,0,0,1-1.3-.25s0,0,0,0,.2.36.6.51a7.68,7.68,0,0,0,1.44.29.69.69,0,0,1-.28.32.17.17,0,0,1-.1,0,6.21,6.21,0,0,1-1.39-.42s0,0,0,0c0,.28.71.88,1.35,1.12a7.09,7.09,0,0,0-1.51,2.43H13.4c-1.58,0-3.15-1-3.15-2.33a2.86,2.86,0,0,1,.7-1.73,3.67,3.67,0,0,0,.6.06c.72,0,1.1-.38,1.13-.76a.62.62,0,0,0-.7-.59c-.67,0-1.88.62-3.1.62a2.4,2.4,0,0,0,.56.28,4.41,4.41,0,0,0-1.37,2.43l-1.87,3a8.84,8.84,0,0,1-2,2.25,2.82,2.82,0,0,0,3-1.59l1-1.53a4.29,4.29,0,0,0,.26.58L6.56,45.13a8.31,8.31,0,0,1-2,2.25,2.83,2.83,0,0,0,3-1.59l1.64-2.63a4.78,4.78,0,0,0,.39.39l-2.32,3.7a8.31,8.31,0,0,1-2,2.25,2.83,2.83,0,0,0,3-1.59l2.26-3.61.46.27L8.35,49a8.49,8.49,0,0,1-2,2.25,2.83,2.83,0,0,0,3-1.59l2.83-4.54.52.18L9.55,50.41a8.49,8.49,0,0,1-2,2.25,2.83,2.83,0,0,0,3-1.59L14,45.6l.11,0a2.93,2.93,0,0,1,.15.85,6.17,6.17,0,0,1-2.48,4.41,1.35,1.35,0,0,0,.38,0,3.74,3.74,0,0,0,.59,0A14.84,14.84,0,0,1,11.44,53a9.86,9.86,0,0,0-1.51-.14c-.44,0-.49.26-.49.49a1.12,1.12,0,0,0,.4.89c.08-.2.25-.47,1.07-.47H11c-.24.27-1,.87-1,1.36a.9.9,0,0,0,.82.8.88.88,0,0,1,0-.27,2.13,2.13,0,0,1,.64-1.18,1.33,1.33,0,0,0,0,.2c0,.93.08,1.36.67,1.36a.93.93,0,0,0,.56-.21,1.27,1.27,0,0,1-.4-1.15v-.45a2.48,2.48,0,0,0,0-.39,2.64,2.64,0,0,1,.46,0s.84-.07,1,.37c.23-.21.56-.51.56-.83s-.1-.46-.53-.46c-.17,0-.68.1-1.11.1a10.74,10.74,0,0,1,1.07-1.56,1.32,1.32,0,0,0,.41.63,4.47,4.47,0,0,1,.79-2.12,10.92,10.92,0,0,1,.15,1.85c0,2.31-.56,4-1.74,4.35a1,1,0,0,0,.82.5c.43,0,.67-.49.91-1,.12.34.47,1.18.81,1.18s.69-.84.82-1.18c.24.46.47,1,.91,1a1,1,0,0,0,.81-.5c-1.18-.33-1.73-2-1.73-4.35a11.21,11.21,0,0,1,.14-1.85,4.36,4.36,0,0,1,.79,2.12,1.25,1.25,0,0,0,.41-.63A11,11,0,0,1,19.12,53c-.43,0-.95-.1-1.11-.1-.43,0-.53.24-.53.46s.33.62.55.83c.21-.44,1-.37,1-.37a2.7,2.7,0,0,1,.46,0,2.48,2.48,0,0,0,0,.39v.45a1.27,1.27,0,0,1-.4,1.15.9.9,0,0,0,.55.21c.6,0,.68-.43.68-1.36v-.2A2.13,2.13,0,0,1,21,55.66a1.37,1.37,0,0,1,0,.27.88.88,0,0,0,.81-.8c0-.49-.74-1.09-1-1.36h.08c.82,0,1,.27,1.06.47a1.13,1.13,0,0,0,.41-.89c0-.23-.05-.49-.49-.49a9.86,9.86,0,0,0-1.51.14A14,14,0,0,1,19,50.89a3.74,3.74,0,0,0,.59,0,1.22,1.22,0,0,0,.37,0,6.2,6.2,0,0,1-2.48-4.41,3,3,0,0,1,.16-.85l.1,0,3.42,5.47a2.83,2.83,0,0,0,3,1.59,8.49,8.49,0,0,1-2-2.25L19,45.28l.51-.18,2.84,4.54a2.83,2.83,0,0,0,3,1.59,8.31,8.31,0,0,1-2-2.25l-2.76-4.41.46-.27,2.26,3.61a2.82,2.82,0,0,0,3,1.59,8.68,8.68,0,0,1-2-2.25l-2.31-3.7c.13-.13.26-.25.38-.39l1.65,2.63a2.82,2.82,0,0,0,3,1.59,8.68,8.68,0,0,1-2-2.25l-1.9-3.05a4.29,4.29,0,0,0,.26-.58ZM9.23,39.52a3.38,3.38,0,0,1,1.12-2.3l.21.05a3,3,0,0,0-.86,1.85c0,1.67,1.78,3.12,3.8,3.12,0,.14,0,.29,0,.45s0,.47,0,.69A4.27,4.27,0,0,1,9.23,39.52Zm3.09,13.67v0h0a7,7,0,0,0,1.16-.08l.27,0c.16,0,.29,0,.29.22a.85.85,0,0,1-.32.48,1.38,1.38,0,0,0-1-.27,6.14,6.14,0,0,0-.68.06h0v.08a3.22,3.22,0,0,1,0,.52v.45a1.65,1.65,0,0,0,.26,1.09.57.57,0,0,1-.18,0c-.34,0-.43-.15-.43-1.12,0-.2,0-.38,0-.5V54l0,0a2.62,2.62,0,0,0-1,1.58.7.7,0,0,1-.32-.48c0-.28.42-.7.91-1.19l.28-.28,0,0-.09,0a2.63,2.63,0,0,0-.46-.07,1.41,1.41,0,0,0-1.1.33,1.08,1.08,0,0,1-.14-.51.29.29,0,0,1,.06-.21.28.28,0,0,1,.18,0h0a10.59,10.59,0,0,1,1.6.15h0A13.73,13.73,0,0,0,13,50.84a.76.76,0,0,1,.25,0c.23,0,.29.15.35.38A7.93,7.93,0,0,0,12.32,53.19Zm6.17-2.39a.76.76,0,0,1,.25,0,14.38,14.38,0,0,0,1.49,2.4h0a10.59,10.59,0,0,1,1.6-.15h0a.3.3,0,0,1,.19,0,.29.29,0,0,1,.06.21,1.21,1.21,0,0,1-.14.51,1.41,1.41,0,0,0-1.1-.33,2.49,2.49,0,0,0-.46.07h-.05l-.05,0,.32.31c.49.49.91.91.91,1.19a.73.73,0,0,1-.32.48A2.67,2.67,0,0,0,20.18,54l0,0v.18c0,.12,0,.3,0,.5,0,1-.1,1.12-.44,1.12a.57.57,0,0,1-.18,0,1.64,1.64,0,0,0,.27-1.09v-.45a3,3,0,0,1,.05-.52v-.08h-.05a6,6,0,0,0-.67-.06,1.42,1.42,0,0,0-1,.27.88.88,0,0,1-.31-.48c0-.21.12-.22.29-.22l.27,0a7,7,0,0,0,1.16.08h0v0a8,8,0,0,0-1.33-2C18.21,51,18.27,50.8,18.49,50.8ZM15.84,37.5a2.09,2.09,0,0,0-.41-.83,1.16,1.16,0,0,0-.86-.46,2.13,2.13,0,0,0-.67.17,1.9,1.9,0,0,1-.21-.59c0-.14.24-.29.71-.29,1,0,1.65.47,1.65,1.25A1.91,1.91,0,0,1,15.84,37.5Zm.47-1a1.36,1.36,0,0,0-.25-.59c0-.21.09-.4.41-.24-.17.18,0,.5,0,.5s.36-.17.29-.41C17.25,35.87,16.87,36.59,16.31,36.48Zm2,6.9c0-.23,0-.46,0-.69a3.7,3.7,0,0,0,0-.45c2,0,3.74-1.47,3.74-3.12a3,3,0,0,0-.85-1.85l.21-.05a3.38,3.38,0,0,1,1.12,2.3A4.26,4.26,0,0,1,18.32,43.38Z"/>
    <polygon points="37.14 36.04 37.14 56.04 35.64 56.04 33.64 56.04 33.64 36.04 37.14 36.04"/>
    <path d="M44.58,44V35.81h1.55a6,6,0,0,1,1.74.22,2.93,2.93,0,0,1,1.24.68,2.74,2.74,0,0,1,.73,1.2,6,6,0,0,1,.24,1.81,5.89,5.89,0,0,1-.28,1.94A3.56,3.56,0,0,1,49,43a3.14,3.14,0,0,1-1.28.77A5.33,5.33,0,0,1,46,44Zm1-7.39v6.54H46A3.71,3.71,0,0,0,47.27,43a2.15,2.15,0,0,0,.93-.59,2.74,2.74,0,0,0,.58-1.07,5.75,5.75,0,0,0,.19-1.6,4.7,4.7,0,0,0-.19-1.46,2.27,2.27,0,0,0-.55-.95,2,2,0,0,0-.89-.52,4.49,4.49,0,0,0-1.21-.16ZM52.34,44h-1V38.31h1Zm-.47-7.09a.62.62,0,0,1-.48-.19.7.7,0,0,1-.18-.5.69.69,0,0,1,.18-.49.66.66,0,0,1,.48-.19.63.63,0,0,1,.46.19.69.69,0,0,1,.18.49.7.7,0,0,1-.18.5A.59.59,0,0,1,51.87,36.93Zm5.61,3.31c0,.25,0,.46,0,.64s0,.33-.05.47H54.5a2.48,2.48,0,0,0,.43,1.48,1.35,1.35,0,0,0,1.11.48,1.53,1.53,0,0,0,.45-.06,2.08,2.08,0,0,0,.36-.14,1.8,1.8,0,0,0,.25-.17l.14-.13.36.68-.18.17a1.47,1.47,0,0,1-.32.23,2.18,2.18,0,0,1-.5.19,2.43,2.43,0,0,1-.7.09,2.5,2.5,0,0,1-1-.18,1.85,1.85,0,0,1-.74-.56,2.64,2.64,0,0,1-.47-1,5,5,0,0,1-.16-1.38,4.32,4.32,0,0,1,.17-1.32,2.52,2.52,0,0,1,.47-.91,1.94,1.94,0,0,1,.69-.53,2.14,2.14,0,0,1,.84-.17,1.63,1.63,0,0,1,1.29.52A2.24,2.24,0,0,1,57.48,40.24ZM55.67,39a1,1,0,0,0-.82.43,2.4,2.4,0,0,0-.35,1.24h2.08s0-.1,0-.17V40.2a1.55,1.55,0,0,0-.24-.92A.78.78,0,0,0,55.67,39Zm10.13-1a2.47,2.47,0,0,1-.11.75,1.8,1.8,0,0,1-.29.55,1.57,1.57,0,0,1-.43.38,2.41,2.41,0,0,1-.5.21v0a1.91,1.91,0,0,1,.6.23,1.79,1.79,0,0,1,.49.42,1.83,1.83,0,0,1,.33.58,2.27,2.27,0,0,1,.12.75,2.35,2.35,0,0,1-.16.89,1.86,1.86,0,0,1-.52.7,2.43,2.43,0,0,1-.89.47,4.31,4.31,0,0,1-1.27.16H61.49V35.81h1.59a4.53,4.53,0,0,1,1.24.15,2.42,2.42,0,0,1,.85.42,1.7,1.7,0,0,1,.48.66A2.41,2.41,0,0,1,65.8,37.91Zm-1,0a1.22,1.22,0,0,0-.4-.94,1.89,1.89,0,0,0-1.27-.37h-.55v2.84h.53a1.79,1.79,0,0,0,1.27-.41A1.48,1.48,0,0,0,64.75,37.94Zm.16,3.79a1.35,1.35,0,0,0-.44-1.06,1.84,1.84,0,0,0-1.24-.38h-.7v2.88h.64a2,2,0,0,0,1.33-.37A1.36,1.36,0,0,0,64.91,41.73Zm6-1.49a6.13,6.13,0,0,1,0,.64c0,.17,0,.33-.05.47H68a2.48,2.48,0,0,0,.43,1.48,1.35,1.35,0,0,0,1.11.48,1.65,1.65,0,0,0,.46-.06,2.32,2.32,0,0,0,.35-.14,1.8,1.8,0,0,0,.25-.17l.15-.13.35.68-.18.17a1.47,1.47,0,0,1-.32.23,2.18,2.18,0,0,1-.5.19,2.43,2.43,0,0,1-.7.09,2.5,2.5,0,0,1-1-.18,1.92,1.92,0,0,1-.74-.56,2.64,2.64,0,0,1-.47-1A5,5,0,0,1,67,41.1a4.32,4.32,0,0,1,.17-1.32,2.52,2.52,0,0,1,.47-.91,1.94,1.94,0,0,1,.69-.53,2.14,2.14,0,0,1,.84-.17,1.63,1.63,0,0,1,1.29.52A2.24,2.24,0,0,1,71,40.24ZM69.14,39a1,1,0,0,0-.82.43A2.4,2.4,0,0,0,68,40.62h2.08s0-.1,0-.17V40.2a1.55,1.55,0,0,0-.24-.92A.78.78,0,0,0,69.14,39Zm2.77,3.62a1.62,1.62,0,0,1,.19-.83,1.46,1.46,0,0,1,.51-.54,2.11,2.11,0,0,1,.75-.3,4.59,4.59,0,0,1,.93-.09h.29v-.55a1.51,1.51,0,0,0-.25-1,.94.94,0,0,0-.72-.27,1.33,1.33,0,0,0-.72.18l-.45.33-.4-.64a1.94,1.94,0,0,1,.6-.44,3.12,3.12,0,0,1,.49-.18,2.35,2.35,0,0,1,.62-.07,1.7,1.7,0,0,1,1.33.49,2.27,2.27,0,0,1,.45,1.57v2.6q0,.38,0,.72a2.6,2.6,0,0,0,0,.47h-.92l0-.63h0a1.66,1.66,0,0,1-.14.25,1.88,1.88,0,0,1-.24.25,1.45,1.45,0,0,1-.35.19,1.13,1.13,0,0,1-.47.09,1.46,1.46,0,0,1-.6-.12,1.52,1.52,0,0,1-.81-.84A1.69,1.69,0,0,1,71.91,42.57Zm1.72.78a1,1,0,0,0,.36-.06,1.17,1.17,0,0,0,.27-.15,1.07,1.07,0,0,0,.19-.18,1.47,1.47,0,0,1,.13-.17V41.52l-.31,0a2.13,2.13,0,0,0-1,.23.76.76,0,0,0-.36.69,1,1,0,0,0,.2.67A.75.75,0,0,0,73.63,43.35ZM81,44H80.1v-.64h0a.84.84,0,0,1-.15.21,1.37,1.37,0,0,1-.31.26,2,2,0,0,1-.44.22,1.89,1.89,0,0,1-1.27,0,1.17,1.17,0,0,1-.52-.36,1.8,1.8,0,0,1-.33-.65,3.84,3.84,0,0,1-.11-1V38.31h1V42a1.7,1.7,0,0,0,.24,1,.84.84,0,0,0,.72.3,1.16,1.16,0,0,0,.7-.21,2.29,2.29,0,0,0,.45-.41V38.31h1Zm3.87-4.92H83.7V44h-1V39.1H82v-.65l.69-.13V37.18a2.16,2.16,0,0,1,.14-.8,1.47,1.47,0,0,1,.34-.54,1.14,1.14,0,0,1,.5-.31,1.74,1.74,0,0,1,.61-.1,1.35,1.35,0,0,1,.52.09,1.17,1.17,0,0,1,.29.13l-.21.79-.2-.1a1,1,0,0,0-.32-.05.64.64,0,0,0-.52.21,1.29,1.29,0,0,0-.18.79v1H85Zm3.4,0H87v3.16a1.6,1.6,0,0,0,.15.83.58.58,0,0,0,.52.22,1,1,0,0,0,.37-.06,1.25,1.25,0,0,0,.23-.11l.13.78a1.87,1.87,0,0,1-.28.15,1.72,1.72,0,0,1-.61.1,1.44,1.44,0,0,1-1.11-.41A2.08,2.08,0,0,1,86,42.39V39.1h-.69v-.65l.69-.14.11-1.59H87v1.59h1.36Zm3.6.06a.37.37,0,0,0-.15-.06,1,1,0,0,0-.32,0,1,1,0,0,0-.71.25,1.51,1.51,0,0,0-.37.52V44h-1V38.31h.88v.78h0a1.4,1.4,0,0,1,.15-.33,1.09,1.09,0,0,1,.24-.29.94.94,0,0,1,.34-.19,1.28,1.28,0,0,1,.47-.08,1.32,1.32,0,0,1,.32,0l.2.06Zm.56,3.41a1.62,1.62,0,0,1,.19-.83,1.65,1.65,0,0,1,.51-.54,2.24,2.24,0,0,1,.76-.3,4.56,4.56,0,0,1,.92-.09h.3v-.55a1.5,1.5,0,0,0-.26-1,.94.94,0,0,0-.72-.27,1.31,1.31,0,0,0-.71.18L93,39.5l-.41-.64.25-.22a2.27,2.27,0,0,1,.36-.22,2.52,2.52,0,0,1,.49-.18,2.35,2.35,0,0,1,.62-.07,1.71,1.71,0,0,1,1.33.49,2.27,2.27,0,0,1,.45,1.57v2.6c0,.25,0,.49,0,.72s0,.39.05.47h-.91l0-.63h0a1.83,1.83,0,0,1-.15.25,1.34,1.34,0,0,1-.23.25,1.45,1.45,0,0,1-.35.19,1.14,1.14,0,0,1-.48.09,1.53,1.53,0,0,1-.6-.12,1.36,1.36,0,0,1-.48-.34,1.56,1.56,0,0,1-.33-.5A1.91,1.91,0,0,1,92.42,42.57Zm1.73.78a1,1,0,0,0,.35-.06.87.87,0,0,0,.27-.15A.66.66,0,0,0,95,43l.14-.17V41.52l-.31,0a2.21,2.21,0,0,0-1.05.23.76.76,0,0,0-.36.69.94.94,0,0,0,.21.67A.74.74,0,0,0,94.15,43.35Zm7.45-4.29h-.72a2,2,0,0,1,.28,1,2.1,2.1,0,0,1-.15.82,1.66,1.66,0,0,1-.42.61,1.69,1.69,0,0,1-.63.38,2.2,2.2,0,0,1-.78.13h-.31a1.81,1.81,0,0,0-.3.19.45.45,0,0,0-.15.35.34.34,0,0,0,.14.29A.66.66,0,0,0,99,43h.73a3,3,0,0,1,.75.09,1.63,1.63,0,0,1,.6.26,1.39,1.39,0,0,1,.4.47,1.6,1.6,0,0,1,.14.69,1.84,1.84,0,0,1-.2.85,1.89,1.89,0,0,1-.55.65,2.53,2.53,0,0,1-.87.43,4,4,0,0,1-1.14.16,2.13,2.13,0,0,1-1.39-.4A1.42,1.42,0,0,1,97,45a1.31,1.31,0,0,1,.11-.55,2.08,2.08,0,0,1,.27-.41,1.58,1.58,0,0,1,.32-.27l.25-.16v0a.93.93,0,0,1-.37-.79.84.84,0,0,1,.09-.4,1,1,0,0,1,.21-.27,1.09,1.09,0,0,1,.22-.17.71.71,0,0,1,.17-.09v0a1.52,1.52,0,0,1-.7-.63,2.09,2.09,0,0,1-.27-1.12,2.16,2.16,0,0,1,.15-.83,1.7,1.7,0,0,1,.42-.61,1.84,1.84,0,0,1,.61-.35,2.37,2.37,0,0,1,.76-.12,2.14,2.14,0,0,1,.76.14h1.74Zm-2.66,4.79a2.87,2.87,0,0,1-.44,0l-.21.14a1.71,1.71,0,0,0-.18.2,1.22,1.22,0,0,0-.14.28,1.46,1.46,0,0,0,0,.38c0,.61.34.92,1,.92a2.07,2.07,0,0,0,1.29-.34,1,1,0,0,0,.41-.78.65.65,0,0,0-.26-.59,1.21,1.21,0,0,0-.7-.17Zm1.28-3.77a1.13,1.13,0,0,0-.3-.88,1,1,0,0,0-.68-.26,1,1,0,0,0-.71.26,1.46,1.46,0,0,0,0,1.77,1,1,0,0,0,.69.26,1,1,0,0,0,.7-.26A1.14,1.14,0,0,0,100.22,40.08Zm4.91-1h-1.25v3.16a1.48,1.48,0,0,0,.16.83.57.57,0,0,0,.52.22,1.06,1.06,0,0,0,.37-.06l.22-.11.13.78a1.44,1.44,0,0,1-.28.15,1.65,1.65,0,0,1-.61.1,1.4,1.4,0,0,1-1.1-.41,2,2,0,0,1-.37-1.37V39.1h-.69v-.65l.69-.14.1-1.59h.86v1.59h1.37Zm4.68,1.14a5.85,5.85,0,0,1,0,.64c0,.17,0,.33,0,.47h-2.92a2.55,2.55,0,0,0,.43,1.48,1.36,1.36,0,0,0,1.12.48,1.63,1.63,0,0,0,.45-.06,2.32,2.32,0,0,0,.35-.14,1.8,1.8,0,0,0,.25-.17,1.16,1.16,0,0,0,.15-.13l.36.68-.18.17a1.77,1.77,0,0,1-.32.23,2.61,2.61,0,0,1-.5.19,2.5,2.5,0,0,1-.71.09,2.54,2.54,0,0,1-1-.18,1.82,1.82,0,0,1-.73-.56,2.49,2.49,0,0,1-.47-1,5,5,0,0,1-.17-1.38,4.65,4.65,0,0,1,.17-1.32,2.69,2.69,0,0,1,.47-.91,1.94,1.94,0,0,1,.69-.53,2.19,2.19,0,0,1,.85-.17,1.62,1.62,0,0,1,1.28.52A2.24,2.24,0,0,1,109.81,40.24ZM108,39a1,1,0,0,0-.82.43,2.31,2.31,0,0,0-.36,1.24h2.08a.72.72,0,0,0,0-.17c0-.08,0-.16,0-.25a1.55,1.55,0,0,0-.24-.92A.8.8,0,0,0,108,39Zm5.35,2.3a4,4,0,0,1,.23-1.45,2.64,2.64,0,0,1,.58-.94,2.06,2.06,0,0,1,.81-.51,2.85,2.85,0,0,1,.91-.15,2.12,2.12,0,0,1,.47,0,1.25,1.25,0,0,1,.34.1V35.61l1-.11V44h-.88v-.6h0a.91.91,0,0,1-.13.19,1,1,0,0,1-.26.25,1.45,1.45,0,0,1-.41.22,1.78,1.78,0,0,1-.59.09,2,2,0,0,1-.77-.16,1.63,1.63,0,0,1-.63-.52,2.7,2.7,0,0,1-.44-.9A5.18,5.18,0,0,1,113.35,41.25Zm2.26,2.06a1.31,1.31,0,0,0,.41-.06,1.28,1.28,0,0,0,.31-.15,1.42,1.42,0,0,0,.22-.18l.14-.17V39.23a1,1,0,0,0-.31-.14A1.31,1.31,0,0,0,116,39a1.67,1.67,0,0,0-.63.11,1.19,1.19,0,0,0-.5.37,1.81,1.81,0,0,0-.34.68,3.4,3.4,0,0,0-.13,1,4.58,4.58,0,0,0,.1,1,1.9,1.9,0,0,0,.28.64,1.08,1.08,0,0,0,.88.46Zm7.18-3.07c0,.25,0,.46,0,.64s0,.33,0,.47H119.8a2.48,2.48,0,0,0,.44,1.48,1.35,1.35,0,0,0,1.11.48,1.53,1.53,0,0,0,.45-.06,2,2,0,0,0,.35-.14,1.35,1.35,0,0,0,.25-.17,1.16,1.16,0,0,0,.15-.13l.36.68-.18.17a1.77,1.77,0,0,1-.32.23,2.38,2.38,0,0,1-.5.19,2.43,2.43,0,0,1-.7.09,2.5,2.5,0,0,1-1-.18,1.85,1.85,0,0,1-.74-.56,2.64,2.64,0,0,1-.47-1,5,5,0,0,1-.17-1.38,4.3,4.3,0,0,1,.18-1.32,2.52,2.52,0,0,1,.47-.91,1.78,1.78,0,0,1,.69-.53,2.14,2.14,0,0,1,.84-.17,1.63,1.63,0,0,1,1.29.52A2.24,2.24,0,0,1,122.79,40.24ZM121,39a1,1,0,0,0-.82.43,2.31,2.31,0,0,0-.36,1.24h2.09s0-.1,0-.17a2,2,0,0,0,0-.25,1.55,1.55,0,0,0-.24-.92A.8.8,0,0,0,121,39Zm5.61.21-.16-.06a1.18,1.18,0,0,0-1,.21,1.36,1.36,0,0,0-.36.52V44h-1V38.31H125v.78h0a2,2,0,0,1,.15-.33,1.68,1.68,0,0,1,.24-.29,1,1,0,0,1,.34-.19,1.32,1.32,0,0,1,.47-.08,1.34,1.34,0,0,1,.33,0l.19.06Zm7.71-1.25a2.47,2.47,0,0,1-.11.75,1.8,1.8,0,0,1-.29.55,1.73,1.73,0,0,1-.43.38,2.28,2.28,0,0,1-.51.21v0a1.88,1.88,0,0,1,.61.23,1.91,1.91,0,0,1,.48.42,2.06,2.06,0,0,1,.34.58,2.27,2.27,0,0,1,.12.75,2.17,2.17,0,0,1-.17.89,1.83,1.83,0,0,1-.51.7,2.51,2.51,0,0,1-.89.47,4.36,4.36,0,0,1-1.27.16H130V35.81h1.58a4.55,4.55,0,0,1,1.25.15,2.5,2.5,0,0,1,.85.42,1.7,1.7,0,0,1,.48.66A2.41,2.41,0,0,1,134.3,37.91Zm-1.05,0a1.25,1.25,0,0,0-.4-.94,1.9,1.9,0,0,0-1.28-.37H131v2.84h.54a1.75,1.75,0,0,0,1.26-.41A1.45,1.45,0,0,0,133.25,37.94Zm.15,3.79a1.34,1.34,0,0,0-.43-1.06,1.84,1.84,0,0,0-1.24-.38H131v2.88h.65A1.91,1.91,0,0,0,133,42.8,1.33,1.33,0,0,0,133.4,41.73ZM139.78,44h-.88v-.64h0a1.45,1.45,0,0,1-.16.21,1.56,1.56,0,0,1-.3.26,1.89,1.89,0,0,1-.45.22,1.72,1.72,0,0,1-.58.1,1.83,1.83,0,0,1-.68-.12,1.12,1.12,0,0,1-.52-.36,1.8,1.8,0,0,1-.33-.65,3.84,3.84,0,0,1-.11-1V38.31h1V42a1.79,1.79,0,0,0,.23,1,.87.87,0,0,0,.72.3,1.17,1.17,0,0,0,.71-.21,2.29,2.29,0,0,0,.45-.41V38.31h1Zm4.6,0V40.35a1.65,1.65,0,0,0-.25-1,.88.88,0,0,0-.74-.32,1.2,1.2,0,0,0-.72.21,3.14,3.14,0,0,0-.45.42V44h-1V38.31h.88V39h0l.16-.2a1.4,1.4,0,0,1,.31-.27,2.36,2.36,0,0,1,.45-.22,1.78,1.78,0,0,1,.59-.09,2.08,2.08,0,0,1,.69.11,1.32,1.32,0,0,1,.53.36,1.89,1.89,0,0,1,.33.65,3.53,3.53,0,0,1,.12,1V44Zm2.14-2.77a4.06,4.06,0,0,1,.22-1.45,2.8,2.8,0,0,1,.59-.94,2.06,2.06,0,0,1,.81-.51,2.83,2.83,0,0,1,.9-.15,2.28,2.28,0,0,1,.48,0,1.29,1.29,0,0,1,.33.1V35.61l1-.11V44h-.88v-.6h0a1.64,1.64,0,0,1-.13.19,1,1,0,0,1-.26.25,1.38,1.38,0,0,1-.42.22,1.72,1.72,0,0,1-.58.09,2,2,0,0,1-.77-.16,1.73,1.73,0,0,1-.64-.52,2.69,2.69,0,0,1-.43-.9A4.78,4.78,0,0,1,146.52,41.25Zm2.26,2.06a1.25,1.25,0,0,0,.4-.06,1.12,1.12,0,0,0,.31-.15,1.42,1.42,0,0,0,.22-.18,1.53,1.53,0,0,0,.14-.17V39.23a1,1,0,0,0-.3-.14,1.37,1.37,0,0,0-.44-.06,1.59,1.59,0,0,0-.62.11,1.16,1.16,0,0,0-.51.37,2.16,2.16,0,0,0-.34.68,3.78,3.78,0,0,0-.12,1,4,4,0,0,0,.1,1,1.9,1.9,0,0,0,.28.64,1.09,1.09,0,0,0,.4.35A1.13,1.13,0,0,0,148.78,43.31ZM156,40.24a5.85,5.85,0,0,1,0,.64c0,.17,0,.33-.05.47H153a2.48,2.48,0,0,0,.43,1.48,1.36,1.36,0,0,0,1.12.48,1.63,1.63,0,0,0,.45-.06,2.32,2.32,0,0,0,.35-.14,1.8,1.8,0,0,0,.25-.17,1.16,1.16,0,0,0,.15-.13l.35.68-.17.17a1.57,1.57,0,0,1-.33.23,2.18,2.18,0,0,1-.5.19,2.38,2.38,0,0,1-.7.09,2.54,2.54,0,0,1-1-.18,1.92,1.92,0,0,1-.74-.56,2.81,2.81,0,0,1-.47-1A5,5,0,0,1,152,41.1a4.65,4.65,0,0,1,.17-1.32,2.69,2.69,0,0,1,.47-.91,1.94,1.94,0,0,1,.69-.53,2.15,2.15,0,0,1,.85-.17,1.62,1.62,0,0,1,1.28.52A2.24,2.24,0,0,1,156,40.24ZM154.15,39a1,1,0,0,0-.82.43,2.31,2.31,0,0,0-.36,1.24h2.08s0-.1,0-.17V40.2a1.55,1.55,0,0,0-.23-.92A.8.8,0,0,0,154.15,39Zm5.55.52a1.88,1.88,0,0,0-.34-.3,1.12,1.12,0,0,0-.66-.18.86.86,0,0,0-.58.18.57.57,0,0,0-.2.43.79.79,0,0,0,.18.53,2.69,2.69,0,0,0,.57.44l.36.22a3.49,3.49,0,0,1,.91.74,1.57,1.57,0,0,1,.33,1,1.52,1.52,0,0,1-.47,1.14,1.83,1.83,0,0,1-1.35.47,2.6,2.6,0,0,1-.6-.07,3,3,0,0,1-.46-.17,1.33,1.33,0,0,1-.33-.21,1.38,1.38,0,0,1-.21-.21l.46-.76.17.17a1.8,1.8,0,0,0,.25.18,1.35,1.35,0,0,0,.32.15,1.33,1.33,0,0,0,.42.06,1,1,0,0,0,.65-.19.59.59,0,0,0,.23-.46,1,1,0,0,0-.06-.36.8.8,0,0,0-.16-.26,1.47,1.47,0,0,0-.26-.23l-.36-.24-.35-.22a3.44,3.44,0,0,1-.84-.73,1.53,1.53,0,0,1-.31-1,1.37,1.37,0,0,1,.13-.58,1.35,1.35,0,0,1,.35-.47,1.85,1.85,0,0,1,.53-.31,2,2,0,0,1,.65-.11,2.37,2.37,0,0,1,.57.06,1.94,1.94,0,0,1,.41.17,2.84,2.84,0,0,1,.29.2l.18.18Zm4.22-.31a.53.53,0,0,0-.16-.06.92.92,0,0,0-.32,0,1,1,0,0,0-.71.25,1.36,1.36,0,0,0-.36.52V44h-1V38.31h.88v.78h0a2,2,0,0,1,.15-.33,1.68,1.68,0,0,1,.24-.29,1,1,0,0,1,.34-.19,1.32,1.32,0,0,1,.47-.08,1.34,1.34,0,0,1,.33,0l.2.06Zm4.47,1.08c0,.25,0,.46,0,.64s0,.33-.05.47H165.4a2.55,2.55,0,0,0,.44,1.48,1.35,1.35,0,0,0,1.11.48,1.53,1.53,0,0,0,.45-.06,2,2,0,0,0,.35-.14,1.35,1.35,0,0,0,.25-.17,1.16,1.16,0,0,0,.15-.13l.36.68-.18.17a1.77,1.77,0,0,1-.32.23,2.38,2.38,0,0,1-.5.19,2.43,2.43,0,0,1-.7.09,2.5,2.5,0,0,1-1-.18,1.85,1.85,0,0,1-.74-.56,2.64,2.64,0,0,1-.47-1,5,5,0,0,1-.17-1.38,4.3,4.3,0,0,1,.18-1.32,2.52,2.52,0,0,1,.47-.91,1.78,1.78,0,0,1,.69-.53,2.14,2.14,0,0,1,.84-.17,1.63,1.63,0,0,1,1.29.52A2.24,2.24,0,0,1,168.39,40.24ZM166.58,39a1,1,0,0,0-.82.43,2.4,2.4,0,0,0-.36,1.24h2.09s0-.1,0-.17a2,2,0,0,0,0-.25,1.55,1.55,0,0,0-.24-.92A.8.8,0,0,0,166.58,39Zm7.19.11h-.71a1.94,1.94,0,0,1,.27,1,2.1,2.1,0,0,1-.15.82,1.66,1.66,0,0,1-.42.61,1.55,1.55,0,0,1-.63.38,2.2,2.2,0,0,1-.78.13H171a1.43,1.43,0,0,0-.29.19.43.43,0,0,0-.16.35.37.37,0,0,0,.14.29.68.68,0,0,0,.45.11h.72a3,3,0,0,1,.75.09,1.63,1.63,0,0,1,.6.26,1.29,1.29,0,0,1,.4.47,1.47,1.47,0,0,1,.14.69,1.83,1.83,0,0,1-.19.85A1.93,1.93,0,0,1,173,46a2.36,2.36,0,0,1-.87.43,4,4,0,0,1-1.14.16,2.15,2.15,0,0,1-1.39-.4,1.42,1.42,0,0,1-.48-1.15,1.18,1.18,0,0,1,.12-.55,1.69,1.69,0,0,1,.26-.41,1.91,1.91,0,0,1,.32-.27l.26-.16v0a.9.9,0,0,1-.37-.79.84.84,0,0,1,.09-.4,1,1,0,0,1,.2-.27,1.09,1.09,0,0,1,.22-.17l.18-.09v0a1.54,1.54,0,0,1-.71-.63,2.09,2.09,0,0,1-.27-1.12,2,2,0,0,1,.16-.83,1.68,1.68,0,0,1,.41-.61,1.88,1.88,0,0,1,.62-.35,2.27,2.27,0,0,1,.75-.12,2.14,2.14,0,0,1,.76.14h1.74Zm-2.65,4.79a2.65,2.65,0,0,1-.44,0,1.1,1.1,0,0,0-.21.14,1.8,1.8,0,0,0-.19.2,1.2,1.2,0,0,0-.13.28,1.12,1.12,0,0,0-.06.38c0,.61.34.92,1,.92a2.07,2.07,0,0,0,1.29-.34,1,1,0,0,0,.42-.78.64.64,0,0,0-.27-.59,1.19,1.19,0,0,0-.7-.17Zm1.27-3.77a1.16,1.16,0,0,0-.29-.88,1,1,0,0,0-.69-.26,1.07,1.07,0,0,0-.71.26,1.46,1.46,0,0,0,0,1.77,1,1,0,0,0,.69.26,1.05,1.05,0,0,0,.71-.26A1.17,1.17,0,0,0,172.39,40.08ZM175.83,44h-1V38.31h1Zm-.48-7.09a.6.6,0,0,1-.47-.19.7.7,0,0,1-.18-.5.69.69,0,0,1,.18-.49.63.63,0,0,1,.47-.19.65.65,0,0,1,.47.19.68.68,0,0,1,.17.49.69.69,0,0,1-.17.5A.61.61,0,0,1,175.35,36.93ZM181,40.24c0,.25,0,.46,0,.64s0,.33,0,.47H178a2.48,2.48,0,0,0,.44,1.48,1.34,1.34,0,0,0,1.11.48,1.53,1.53,0,0,0,.45-.06,2,2,0,0,0,.35-.14,1.8,1.8,0,0,0,.25-.17,1.16,1.16,0,0,0,.15-.13l.36.68-.18.17a1.77,1.77,0,0,1-.32.23,2.38,2.38,0,0,1-.5.19,2.43,2.43,0,0,1-.7.09,2.5,2.5,0,0,1-1-.18,1.85,1.85,0,0,1-.74-.56,2.64,2.64,0,0,1-.47-1A5,5,0,0,1,177,41.1a4.65,4.65,0,0,1,.17-1.32,2.88,2.88,0,0,1,.47-.91,1.94,1.94,0,0,1,.69-.53,2.22,2.22,0,0,1,.85-.17,1.6,1.6,0,0,1,1.28.52A2.24,2.24,0,0,1,181,40.24ZM179.16,39a1,1,0,0,0-.82.43,2.31,2.31,0,0,0-.36,1.24h2.08a.72.72,0,0,0,0-.17,2,2,0,0,0,0-.25,1.55,1.55,0,0,0-.24-.92A.8.8,0,0,0,179.16,39Zm5.6.21a.37.37,0,0,0-.15-.06,1.18,1.18,0,0,0-1,.21,1.36,1.36,0,0,0-.36.52V44h-1V38.31h.88v.78h0a2,2,0,0,1,.15-.33,1.68,1.68,0,0,1,.24-.29,1,1,0,0,1,.34-.19,1.32,1.32,0,0,1,.47-.08,1.41,1.41,0,0,1,.33,0l.19.06Zm5,4.86h-.89v-.64h0a.84.84,0,0,1-.15.21,1.37,1.37,0,0,1-.31.26,2,2,0,0,1-.44.22,1.89,1.89,0,0,1-1.27,0,1.17,1.17,0,0,1-.52-.36,1.8,1.8,0,0,1-.33-.65,3.84,3.84,0,0,1-.11-1V38.31h1V42a1.71,1.71,0,0,0,.23,1,.84.84,0,0,0,.72.3,1.16,1.16,0,0,0,.7-.21,2.29,2.29,0,0,0,.45-.41V38.31h1Zm4.59,0V40.35a1.65,1.65,0,0,0-.25-1,.88.88,0,0,0-.74-.32,1.17,1.17,0,0,0-.71.21,4,4,0,0,0-.46.42V44h-1V38.31h.88V39h0a1.1,1.1,0,0,1,.15-.2,1.4,1.4,0,0,1,.31-.27,3.15,3.15,0,0,1,.45-.22,1.85,1.85,0,0,1,.6-.09,2.17,2.17,0,0,1,.69.11,1.35,1.35,0,0,1,.52.36,1.89,1.89,0,0,1,.33.65,3.53,3.53,0,0,1,.12,1V44Zm6.5-5h-.72a2,2,0,0,1,.28,1,2.1,2.1,0,0,1-.15.82,1.66,1.66,0,0,1-.42.61,1.69,1.69,0,0,1-.63.38,2.2,2.2,0,0,1-.78.13h-.31a1.81,1.81,0,0,0-.3.19.45.45,0,0,0-.15.35.34.34,0,0,0,.14.29.66.66,0,0,0,.44.11h.73a3,3,0,0,1,.75.09,1.63,1.63,0,0,1,.6.26,1.39,1.39,0,0,1,.4.47,1.6,1.6,0,0,1,.14.69,1.84,1.84,0,0,1-.2.85,1.89,1.89,0,0,1-.55.65,2.53,2.53,0,0,1-.87.43,4,4,0,0,1-1.14.16,2.13,2.13,0,0,1-1.39-.4A1.42,1.42,0,0,1,196.2,45a1.31,1.31,0,0,1,.11-.55,2.08,2.08,0,0,1,.27-.41,1.58,1.58,0,0,1,.32-.27l.25-.16v0a.93.93,0,0,1-.37-.79.84.84,0,0,1,.09-.4,1,1,0,0,1,.21-.27,1.09,1.09,0,0,1,.22-.17.71.71,0,0,1,.17-.09v0a1.52,1.52,0,0,1-.7-.63,2.09,2.09,0,0,1-.27-1.12,2.16,2.16,0,0,1,.15-.83,1.63,1.63,0,0,1,1-1,2.37,2.37,0,0,1,.76-.12,2.14,2.14,0,0,1,.76.14h1.74Zm-2.66,4.79a2.87,2.87,0,0,1-.44,0l-.21.14a1.71,1.71,0,0,0-.18.2,1.22,1.22,0,0,0-.14.28,1.46,1.46,0,0,0-.05.38c0,.61.34.92,1,.92a2.07,2.07,0,0,0,1.29-.34,1,1,0,0,0,.41-.78.65.65,0,0,0-.26-.59,1.21,1.21,0,0,0-.7-.17Zm1.28-3.77a1.13,1.13,0,0,0-.3-.88,1,1,0,0,0-.68-.26,1,1,0,0,0-.71.26,1.46,1.46,0,0,0,0,1.77,1,1,0,0,0,.69.26,1,1,0,0,0,.7-.26A1.14,1.14,0,0,0,199.43,40.08ZM46.78,51.1H45.62V56h-1V51.1H44v-.65l.69-.13V49.18a2.16,2.16,0,0,1,.14-.8,1.47,1.47,0,0,1,.34-.54,1.14,1.14,0,0,1,.5-.31,1.74,1.74,0,0,1,.61-.1,1.35,1.35,0,0,1,.52.09,1.17,1.17,0,0,1,.29.13l-.21.79-.2-.1a1,1,0,0,0-.32-.05.64.64,0,0,0-.52.21,1.29,1.29,0,0,0-.18.79v1H46.9ZM51.73,56h-.88v-.64h0a.84.84,0,0,1-.15.21,1.37,1.37,0,0,1-.31.26,2,2,0,0,1-.44.22,1.89,1.89,0,0,1-1.27,0,1.17,1.17,0,0,1-.52-.36,1.8,1.8,0,0,1-.33-.65,3.84,3.84,0,0,1-.11-1V50.31h1V54a1.7,1.7,0,0,0,.24,1,.84.84,0,0,0,.72.3,1.16,1.16,0,0,0,.7-.21,2.29,2.29,0,0,0,.45-.41V50.31h1Zm-2.36-7.35a.6.6,0,0,1-.17.44.56.56,0,0,1-.4.17.57.57,0,0,1-.41-.17.65.65,0,0,1,0-.88.57.57,0,0,1,.41-.17.56.56,0,0,1,.4.17A.6.6,0,0,1,49.37,48.67Zm1.83,0a.6.6,0,0,1-.17.44.54.54,0,0,1-.4.17.57.57,0,0,1-.41-.17.68.68,0,0,1,0-.88.57.57,0,0,1,.41-.17.54.54,0,0,1,.4.17A.6.6,0,0,1,51.2,48.67Zm4.52,2.49a.37.37,0,0,0-.15-.06,1,1,0,0,0-.32,0,1,1,0,0,0-.71.25,1.51,1.51,0,0,0-.37.52V56h-1V50.31h.88v.78h0a2,2,0,0,1,.16-.33,1.09,1.09,0,0,1,.24-.29.94.94,0,0,1,.34-.19,1.28,1.28,0,0,1,.47-.08,1.32,1.32,0,0,1,.32,0l.2.06Zm5.93.66L64.43,56H63.16l-2.38-3.73h-.62V56h-1V47.81h1v3.66h.63l2.3-3.66h1.15ZM69.11,56h-.88v-.64h0a.84.84,0,0,1-.15.21,1.56,1.56,0,0,1-.3.26,2.36,2.36,0,0,1-.45.22,1.76,1.76,0,0,1-.58.1,1.88,1.88,0,0,1-.69-.12,1.14,1.14,0,0,1-.51-.36,1.54,1.54,0,0,1-.33-.65,3.4,3.4,0,0,1-.12-1V50.31h1V54a1.79,1.79,0,0,0,.23,1,.87.87,0,0,0,.72.3,1.14,1.14,0,0,0,.7-.21,2.29,2.29,0,0,0,.45-.41V50.31h1Zm2.43-1.33a.87.87,0,0,0,.1.5.38.38,0,0,0,.35.14.72.72,0,0,0,.22,0l.14-.05.08.72-.26.09a1.78,1.78,0,0,1-.51.06,1.06,1.06,0,0,1-.79-.3,1.46,1.46,0,0,1-.3-1.06V47.61l1-.11Zm4.2-3.59H74.49v3.16a1.6,1.6,0,0,0,.15.83.6.6,0,0,0,.53.22,1,1,0,0,0,.36-.06,1.25,1.25,0,0,0,.23-.11l.13.78a1.87,1.87,0,0,1-.28.15,1.68,1.68,0,0,1-.61.1,1.44,1.44,0,0,1-1.11-.41,2.08,2.08,0,0,1-.37-1.37V51.1h-.69v-.65l.69-.14.11-1.59h.86v1.59h1.37ZM80.83,56H80v-.64h0a1.45,1.45,0,0,1-.16.21,1.56,1.56,0,0,1-.3.26,2.1,2.1,0,0,1-.45.22,1.76,1.76,0,0,1-.58.1,1.88,1.88,0,0,1-.69-.12,1.14,1.14,0,0,1-.51-.36,1.54,1.54,0,0,1-.33-.65,3.44,3.44,0,0,1-.11-1V50.31h1V54A1.79,1.79,0,0,0,78,55a.87.87,0,0,0,.72.3,1.14,1.14,0,0,0,.7-.21,2.38,2.38,0,0,0,.46-.41V50.31h1Zm4-4.86-.16-.06a.92.92,0,0,0-.32,0,1,1,0,0,0-.71.25,1.36,1.36,0,0,0-.36.52V56h-1V50.31h.88v.78h0a1.44,1.44,0,0,1,.16-.33,1.28,1.28,0,0,1,.23-.29,1,1,0,0,1,.34-.19,1.32,1.32,0,0,1,.47-.08,1.34,1.34,0,0,1,.33,0l.2.06ZM92,56h-.88v-.64h0a.84.84,0,0,1-.15.21,1.37,1.37,0,0,1-.31.26,2,2,0,0,1-.44.22,1.89,1.89,0,0,1-1.27,0,1.23,1.23,0,0,1-.52-.36A1.65,1.65,0,0,1,88.1,55a3.4,3.4,0,0,1-.12-1V50.31h1V54a1.71,1.71,0,0,0,.23,1,.84.84,0,0,0,.72.3,1.14,1.14,0,0,0,.7-.21,2.29,2.29,0,0,0,.45-.41V50.31h1Zm4.59,0V52.35a1.73,1.73,0,0,0-.24-1,.9.9,0,0,0-.75-.32,1.17,1.17,0,0,0-.71.21,3.14,3.14,0,0,0-.45.42V56h-1V50.31h.88V51h0a1.1,1.1,0,0,1,.15-.2,1.4,1.4,0,0,1,.31-.27,3.15,3.15,0,0,1,.45-.22,1.89,1.89,0,0,1,.6-.09,2.17,2.17,0,0,1,.69.11,1.35,1.35,0,0,1,.52.36,1.73,1.73,0,0,1,.33.65,3.53,3.53,0,0,1,.12,1V56Zm2.14-2.77A4,4,0,0,1,99,51.8a2.64,2.64,0,0,1,.58-.94,2.06,2.06,0,0,1,.81-.51,2.83,2.83,0,0,1,.9-.15,2.14,2.14,0,0,1,.48,0,1.08,1.08,0,0,1,.33.1V47.61l1-.11V56h-.88v-.6h0a.91.91,0,0,1-.13.19,1,1,0,0,1-.26.25,1.38,1.38,0,0,1-.42.22,1.68,1.68,0,0,1-.58.09A2,2,0,0,1,100,56a1.63,1.63,0,0,1-.63-.52,2.52,2.52,0,0,1-.44-.9A5.18,5.18,0,0,1,98.75,53.25ZM101,55.31a1.31,1.31,0,0,0,.41-.06,1.28,1.28,0,0,0,.31-.15,2.13,2.13,0,0,0,.22-.18,1.29,1.29,0,0,0,.13-.17V51.23a.83.83,0,0,0-.3-.14,1.31,1.31,0,0,0-.43-.06,1.64,1.64,0,0,0-.63.11,1.19,1.19,0,0,0-.5.37,1.81,1.81,0,0,0-.34.68,3.4,3.4,0,0,0-.13,1,4.58,4.58,0,0,0,.1,1,1.9,1.9,0,0,0,.28.64,1.08,1.08,0,0,0,.88.46Zm13.08-7.5V56h-1V51.39c0-.23,0-.46,0-.66s0-.39,0-.55a3.26,3.26,0,0,1,0-.37h0c0,.18-.12.48-.24.89s-.26.85-.42,1.31l-1.36,4h-.82l-1.36-4c-.16-.46-.3-.9-.42-1.31s-.2-.71-.24-.89h0a3.63,3.63,0,0,1,0,.38c0,.16,0,.34,0,.54s0,.43,0,.66V56h-1V47.81h1.15l1.94,5.67c.09.26.17.51.23.76a4.12,4.12,0,0,1,.13.65h0a3.05,3.05,0,0,1,.12-.64c.06-.25.14-.5.23-.76L113,47.81Zm5.3,4.43a5.85,5.85,0,0,1,0,.64c0,.17,0,.33,0,.47H116.4a2.55,2.55,0,0,0,.43,1.48,1.36,1.36,0,0,0,1.12.48,1.63,1.63,0,0,0,.45-.06,2.32,2.32,0,0,0,.35-.14,1.8,1.8,0,0,0,.25-.17,1.16,1.16,0,0,0,.15-.13l.36.68-.18.17a1.77,1.77,0,0,1-.32.23,2.61,2.61,0,0,1-.5.19,2.5,2.5,0,0,1-.71.09,2.54,2.54,0,0,1-1-.18,1.82,1.82,0,0,1-.73-.56,2.49,2.49,0,0,1-.47-1,5.44,5.44,0,0,1,0-2.7,2.69,2.69,0,0,1,.47-.91,1.94,1.94,0,0,1,.69-.53,2.19,2.19,0,0,1,.85-.17,1.62,1.62,0,0,1,1.28.52A2.24,2.24,0,0,1,119.39,52.24ZM117.58,51a1,1,0,0,0-.82.43,2.31,2.31,0,0,0-.36,1.24h2.08a.72.72,0,0,0,0-.17c0-.08,0-.16,0-.25a1.55,1.55,0,0,0-.24-.92A.8.8,0,0,0,117.58,51Zm2.83,2.3a4,4,0,0,1,.23-1.45,2.64,2.64,0,0,1,.58-.94,2.06,2.06,0,0,1,.81-.51,2.83,2.83,0,0,1,.9-.15,2.21,2.21,0,0,1,.48,0,1.29,1.29,0,0,1,.33.1V47.61l1-.11V56h-.88v-.6h0a1.64,1.64,0,0,1-.13.19,1,1,0,0,1-.26.25,1.38,1.38,0,0,1-.42.22,1.68,1.68,0,0,1-.58.09,2,2,0,0,1-.77-.16,1.73,1.73,0,0,1-.64-.52,2.69,2.69,0,0,1-.43-.9A4.78,4.78,0,0,1,120.41,53.25Zm2.26,2.06a1.31,1.31,0,0,0,.41-.06,1.2,1.2,0,0,0,.3-.15,1.06,1.06,0,0,0,.22-.18,1.53,1.53,0,0,0,.14-.17V51.23a1,1,0,0,0-.3-.14A1.37,1.37,0,0,0,123,51a1.59,1.59,0,0,0-.62.11,1.22,1.22,0,0,0-.51.37,2.16,2.16,0,0,0-.34.68,3.78,3.78,0,0,0-.12,1,4,4,0,0,0,.1,1,1.9,1.9,0,0,0,.28.64,1.09,1.09,0,0,0,.4.35A1.16,1.16,0,0,0,122.67,55.31Zm4.48.71h-1V50.31h1Zm-.48-7.09a.62.62,0,0,1-.48-.19.7.7,0,0,1-.18-.5.69.69,0,0,1,.18-.49.66.66,0,0,1,.48-.19.63.63,0,0,1,.46.19.69.69,0,0,1,.18.49.7.7,0,0,1-.18.5A.59.59,0,0,1,126.67,48.93Zm5.62,3.31a5.85,5.85,0,0,1,0,.64c0,.17,0,.33,0,.47H129.3a2.55,2.55,0,0,0,.43,1.48,1.36,1.36,0,0,0,1.12.48,1.63,1.63,0,0,0,.45-.06,2.32,2.32,0,0,0,.35-.14,1.8,1.8,0,0,0,.25-.17,1.16,1.16,0,0,0,.15-.13l.35.68a1.32,1.32,0,0,1-.17.17,1.77,1.77,0,0,1-.32.23,2.61,2.61,0,0,1-.5.19,2.5,2.5,0,0,1-.71.09,2.54,2.54,0,0,1-1-.18,1.82,1.82,0,0,1-.73-.56,2.49,2.49,0,0,1-.47-1,5.44,5.44,0,0,1,0-2.7,2.69,2.69,0,0,1,.47-.91,1.94,1.94,0,0,1,.69-.53,2.19,2.19,0,0,1,.85-.17,1.62,1.62,0,0,1,1.28.52A2.24,2.24,0,0,1,132.29,52.24ZM130.48,51a1,1,0,0,0-.82.43,2.31,2.31,0,0,0-.36,1.24h2.08a.72.72,0,0,0,0-.17c0-.08,0-.16,0-.25a1.55,1.55,0,0,0-.24-.92A.8.8,0,0,0,130.48,51ZM136.69,56V52.35a1.73,1.73,0,0,0-.24-1,.91.91,0,0,0-.75-.32,1.17,1.17,0,0,0-.71.21,3.14,3.14,0,0,0-.45.42V56h-1V50.31h.88V51h0a1.1,1.1,0,0,1,.15-.2,1.4,1.4,0,0,1,.31-.27,3.15,3.15,0,0,1,.45-.22,1.85,1.85,0,0,1,.6-.09,2.17,2.17,0,0,1,.69.11,1.35,1.35,0,0,1,.52.36,1.89,1.89,0,0,1,.33.65,3.53,3.53,0,0,1,.12,1V56Z"/>
  </g>
</svg>
