<?xml version="1.0" encoding="utf-8"?>
<!--enerator: Adobe Illustrator 25.2.1, SVG Export Plug-In . SVG Version: 6.00 Build 0)  -->
<svg version="1.1" id="Ebene_1"
  xmlns="http://www.w3.org/2000/svg"
  xmlns:xlink="http://www.w3.org/1999/xlink" x="0px" y="0px" viewBox="0 0 483.8 61.9" style="enable-background:new 0 0 483.8 61.9;" xml:space="preserve">
  <style type="text/css">
	.st0{fill:#1485BD;}
  </style>
  <g>
    <path class="st0" d="M475.1,58.9h2v-7.6l3.2,7.6h1.6V46.2h-2v7.3l-3.2-7.3h-1.7V58.9z M467.6,58.9h5.5v-1.6H470v-4.2h2.5v-1.6H470
		v-3.7h3.1v-1.6h-5.5V58.9z M460.1,58.9h5.5v-1.6h-3.2v-4.2h2.5v-1.6h-2.5v-3.7h3.1v-1.6h-5.5V58.9z M454.9,59
		c0.6,0,1.2-0.1,1.7-0.4c0.5-0.3,0.9-0.6,1.2-1.1c0.3-0.5,0.4-1,0.4-1.6c0-0.8-0.2-1.5-0.5-2c-0.3-0.6-0.8-1.1-1.4-1.6l-1.6-1.4
		c-0.4-0.3-0.6-0.6-0.8-0.9c-0.2-0.3-0.2-0.6-0.2-1c0-0.3,0.1-0.6,0.3-0.9c0.2-0.2,0.5-0.3,0.8-0.3c0.5,0,0.8,0.2,1,0.5
		c0.2,0.4,0.3,0.9,0.3,1.6l2.1-0.3c-0.1-1.1-0.4-1.9-0.8-2.5c-0.5-0.6-1.3-0.9-2.4-0.9c-1.1,0-1.9,0.3-2.5,0.8
		c-0.6,0.5-0.9,1.3-0.9,2.3c0,0.7,0.1,1.2,0.4,1.7c0.3,0.5,0.6,0.9,1.1,1.4l1.7,1.4c0.5,0.4,0.9,0.8,1.1,1.2
		c0.2,0.4,0.3,0.8,0.3,1.3c0,0.4-0.1,0.7-0.3,0.9c-0.2,0.2-0.5,0.3-0.8,0.3c-0.5,0-0.9-0.2-1.1-0.6c-0.2-0.4-0.4-1-0.4-1.8l-2.1,0.4
		c0.1,1.3,0.4,2.3,1,2.9C452.8,58.7,453.7,59,454.9,59 M445.4,59c0.9,0,1.7-0.2,2.2-0.5c0.5-0.3,0.9-0.8,1.1-1.4
		c0.2-0.6,0.3-1.4,0.3-2.3v-8.6h-2.3V55c0,0.7-0.1,1.3-0.3,1.7c-0.2,0.4-0.5,0.6-1.1,0.6c-0.5,0-0.9-0.2-1.1-0.6
		c-0.2-0.4-0.3-1-0.3-1.7v-8.9h-2.3v8.6c0,1,0.1,1.7,0.3,2.4c0.2,0.6,0.6,1.1,1.1,1.4C443.7,58.9,444.5,59,445.4,59 M430.2,58.9h1.8
		l0.2-8.9l1.9,8.9h1.4l1.9-8.8l0.2,8.8h1.8l-0.2-12.7h-2.4l-1.9,8.8l-1.9-8.8h-2.5L430.2,58.9z M418.2,58.9h5.5v-1.6h-3.2v-4.2h2.5
		v-1.6h-2.5v-3.7h3.1v-1.6h-5.5V58.9z M408.2,58.9h2.4v-5.7h2.7v5.7h2.4V46.2h-2.4v5.3h-2.7v-5.3h-2.4V58.9z M402.4,59
		c1.3,0,2.2-0.3,2.7-1c0.5-0.7,0.8-1.6,0.8-2.8v-1h-2.3v1.1c0,0.5,0,0.8-0.1,1.1c0,0.3-0.2,0.5-0.3,0.7c-0.2,0.2-0.5,0.3-0.8,0.3
		c-0.5,0-0.9-0.2-1.1-0.5c-0.2-0.3-0.3-0.8-0.3-1.6v-5.5c0-0.5,0-0.8,0.1-1.1c0.1-0.3,0.2-0.5,0.4-0.7c0.2-0.2,0.5-0.3,0.9-0.3
		c0.4,0,0.7,0.1,0.8,0.2c0.2,0.2,0.3,0.4,0.3,0.6c0,0.3,0.1,0.6,0.1,1.1v1.1h2.3v-1.1c0-1.2-0.3-2.1-0.8-2.7
		c-0.5-0.6-1.5-0.9-2.7-0.9c-1.4,0-2.3,0.4-2.9,1.1c-0.6,0.7-0.8,1.8-0.8,3.2v4.5c0,1.4,0.3,2.4,0.9,3.1
		C400.1,58.7,401.1,59,402.4,59 M394,58.9h2.4V46.2H394V58.9z M386.5,58.9h5.6v-1.6h-3.2V46.2h-2.4V58.9z M380.3,58.9h2.4v-11h2
		v-1.7h-6.5v1.7h2.1V58.9z M371.8,58.9h2.4v-5.8h2.5v-1.6h-2.5v-3.7h3v-1.6h-5.4V58.9z M365.1,54.5l0.9-5.3l0.9,5.3H365.1z
		 M362.1,58.9h2.2l0.5-2.9h2.3l0.5,2.9h2.2l-2.6-12.7h-2.6L362.1,58.9z M352.7,58.9h2.4v-5.7h2.7v5.7h2.4V46.2h-2.4v5.3h-2.7v-5.3
		h-2.4V58.9z M346.9,59c1.3,0,2.2-0.3,2.8-1c0.5-0.7,0.8-1.6,0.8-2.8v-1h-2.3v1.1c0,0.5,0,0.8-0.1,1.1c0,0.3-0.2,0.5-0.3,0.7
		c-0.2,0.2-0.4,0.3-0.8,0.3c-0.5,0-0.9-0.2-1.1-0.5c-0.2-0.3-0.3-0.8-0.3-1.6v-5.5c0-0.5,0-0.8,0.1-1.1c0.1-0.3,0.2-0.5,0.4-0.7
		c0.2-0.2,0.5-0.3,0.9-0.3c0.4,0,0.7,0.1,0.8,0.2c0.2,0.2,0.3,0.4,0.3,0.6c0,0.3,0.1,0.6,0.1,1.1v1.1h2.3v-1.1
		c0-1.2-0.3-2.1-0.8-2.7c-0.5-0.6-1.5-0.9-2.7-0.9c-1.4,0-2.3,0.4-2.9,1.1c-0.6,0.7-0.8,1.8-0.8,3.2v4.5c0,1.4,0.3,2.4,0.8,3.1
		C344.6,58.7,345.6,59,346.9,59 M338.2,59c0.6,0,1.2-0.1,1.7-0.4c0.5-0.3,0.9-0.6,1.2-1.1c0.3-0.5,0.4-1,0.4-1.6
		c0-0.8-0.2-1.5-0.5-2c-0.3-0.6-0.8-1.1-1.4-1.6l-1.6-1.4c-0.4-0.3-0.6-0.6-0.8-0.9c-0.2-0.3-0.3-0.6-0.3-1c0-0.3,0.1-0.6,0.3-0.9
		c0.2-0.2,0.5-0.3,0.8-0.3c0.5,0,0.8,0.2,1,0.5c0.2,0.4,0.3,0.9,0.3,1.6l2.1-0.3c-0.1-1.1-0.4-1.9-0.8-2.5c-0.5-0.6-1.3-0.9-2.4-0.9
		c-1.1,0-1.9,0.3-2.5,0.8c-0.6,0.5-0.9,1.3-0.9,2.3c0,0.7,0.1,1.2,0.4,1.7c0.3,0.5,0.6,0.9,1.1,1.4l1.6,1.4c0.5,0.4,0.9,0.8,1.1,1.2
		c0.2,0.4,0.3,0.8,0.3,1.3c0,0.4-0.1,0.7-0.3,0.9c-0.2,0.2-0.5,0.3-0.8,0.3c-0.5,0-0.9-0.2-1.1-0.6c-0.2-0.4-0.4-1-0.4-1.8l-2.1,0.4
		c0.1,1.3,0.4,2.3,1,2.9C336.1,58.7,337,59,338.2,59 M328.7,58.9h2.4v-11h2v-1.7h-6.5v1.7h2.1V58.9z M320.2,51.6v-3.9h0.9
		c0.7,0,1.1,0.2,1.4,0.5c0.3,0.3,0.4,0.8,0.4,1.5c0,0.7-0.1,1.2-0.4,1.5c-0.3,0.3-0.8,0.5-1.4,0.5H320.2z M317.8,58.9h2.4V53h1.1
		l1.6,5.8h2.4l-1.8-6.3c0.6-0.2,1-0.6,1.3-1.1c0.2-0.5,0.4-1.2,0.4-2c0-1.2-0.3-2.1-1-2.6c-0.7-0.5-1.7-0.8-3.1-0.8h-3.2V58.9z
		 M312.8,58.9h2.4V46.2h-2.4V58.9z M302,58.9h2l1.4-8.5l1.5,8.5h1.9l1.8-12.7h-2l-1.1,8.2l-1.4-8.2h-1.6l-1.4,8.2l-1.1-8.2h-2
		L302,58.9z M293.5,57.3v-9.4h0.7c0.5,0,0.9,0.1,1.1,0.2c0.2,0.1,0.4,0.4,0.5,0.7c0.1,0.3,0.1,0.7,0.1,1.3v4.9c0,0.6,0,1.1-0.1,1.4
		c-0.1,0.3-0.2,0.6-0.5,0.7c-0.2,0.2-0.6,0.3-1.1,0.3H293.5z M291.1,58.9h3.2c1,0,1.8-0.1,2.4-0.4c0.6-0.3,1-0.7,1.3-1.3
		c0.3-0.6,0.4-1.4,0.4-2.3v-4.6c0-0.9-0.1-1.7-0.4-2.3c-0.3-0.6-0.7-1-1.3-1.3c-0.6-0.3-1.4-0.4-2.5-0.4h-3.1V58.9z M281.7,58.9h2
		v-7.6l3.2,7.6h1.6V46.2h-2v7.3l-3.2-7.3h-1.7V58.9z M275.1,54.5l0.9-5.3l0.9,5.3H275.1z M272,58.9h2.2l0.5-2.9h2.3l0.5,2.9h2.2
		l-2.6-12.7h-2.6L272,58.9z M265.3,58.9h5.6v-1.6h-3.2V46.2h-2.4V58.9z M253.6,57.5c-0.4,0-0.6-0.1-0.8-0.4c-0.2-0.3-0.3-0.6-0.3-1
		c0-0.8,0.3-1.6,0.8-2.3l1.8,2.9C254.6,57.2,254.2,57.5,253.6,57.5 M253.7,51.4c-0.2-0.5-0.4-0.9-0.5-1.3c-0.1-0.4-0.2-0.8-0.2-1.2
		c0-0.3,0.1-0.6,0.2-0.9c0.2-0.2,0.4-0.3,0.7-0.3c0.3,0,0.5,0.1,0.7,0.2c0.2,0.2,0.3,0.4,0.3,0.7c0,0.5-0.1,1-0.3,1.5
		C254.3,50.6,254,51,253.7,51.4 M253.5,59c0.6,0,1-0.1,1.5-0.3c0.4-0.2,0.8-0.5,1.1-0.9c0.3,0.3,0.6,0.6,1,0.8
		c0.3,0.2,0.7,0.3,1.1,0.3c0.1,0,0.2,0,0.3,0v-1.8c-0.2,0-0.4-0.1-0.7-0.2c-0.2-0.1-0.4-0.2-0.5-0.4c0.7-1.2,1.1-2.5,1.1-3.8h-1.7
		c0,0.5-0.1,1-0.2,1.5c-0.1,0.5-0.2,0.9-0.4,1.1l-1.7-2.9c0.5-0.5,0.9-0.9,1.2-1.2c0.3-0.4,0.6-0.8,0.8-1.2c0.2-0.5,0.3-1,0.3-1.5
		c0-0.8-0.3-1.4-0.8-1.8c-0.5-0.5-1.2-0.7-2-0.7c-0.9,0-1.6,0.3-2.1,0.8c-0.5,0.5-0.8,1.2-0.8,2c0,0.5,0.1,1,0.3,1.5
		c0.2,0.5,0.5,1,0.9,1.7l0.2,0.3c-0.6,0.6-1.1,1.1-1.4,1.7c-0.3,0.6-0.5,1.3-0.5,2c0,0.9,0.3,1.6,0.8,2.1
		C251.9,58.8,252.6,59,253.5,59 M236.9,58.9h2v-7.6l3.2,7.6h1.6V46.2h-2v7.3l-3.2-7.3h-1.7V58.9z M229.4,58.9h5.5v-1.6h-3.2v-4.2
		h2.5v-1.6h-2.5v-3.7h3.1v-1.6h-5.5V58.9z M221.9,58.9h5.5v-1.6h-3.2v-4.2h2.5v-1.6h-2.5v-3.7h3.1v-1.6h-5.5V58.9z M216.7,59
		c0.6,0,1.2-0.1,1.7-0.4c0.5-0.3,0.9-0.6,1.2-1.1c0.3-0.5,0.4-1,0.4-1.6c0-0.8-0.2-1.5-0.5-2c-0.3-0.6-0.8-1.1-1.4-1.6l-1.6-1.4
		c-0.4-0.3-0.6-0.6-0.8-0.9c-0.2-0.3-0.3-0.6-0.3-1c0-0.3,0.1-0.6,0.3-0.9c0.2-0.2,0.5-0.3,0.8-0.3c0.5,0,0.8,0.2,1,0.5
		c0.2,0.4,0.3,0.9,0.3,1.6l2.1-0.3c-0.1-1.1-0.4-1.9-0.8-2.5c-0.5-0.6-1.3-0.9-2.4-0.9c-1.1,0-1.9,0.3-2.5,0.8
		c-0.6,0.5-0.9,1.3-0.9,2.3c0,0.7,0.1,1.2,0.4,1.7c0.3,0.5,0.6,0.9,1.1,1.4l1.6,1.4c0.5,0.4,0.9,0.8,1.1,1.2
		c0.2,0.4,0.3,0.8,0.3,1.3c0,0.4-0.1,0.7-0.3,0.9c-0.2,0.2-0.4,0.3-0.8,0.3c-0.5,0-0.9-0.2-1.1-0.6c-0.2-0.4-0.4-1-0.4-1.8l-2.1,0.4
		c0.1,1.3,0.4,2.3,1,2.9C214.6,58.7,215.5,59,216.7,59 M207.2,59c0.9,0,1.7-0.2,2.2-0.5c0.5-0.3,0.9-0.8,1.1-1.4
		c0.2-0.6,0.3-1.4,0.3-2.3v-8.6h-2.3V55c0,0.7-0.1,1.3-0.3,1.7c-0.2,0.4-0.5,0.6-1.1,0.6c-0.5,0-0.9-0.2-1.1-0.6
		c-0.2-0.4-0.3-1-0.3-1.7v-8.9h-2.3v8.6c0,1,0.1,1.7,0.3,2.4c0.2,0.6,0.6,1.1,1.1,1.4C205.5,58.9,206.3,59,207.2,59 M192,58.9h1.8
		L194,50l1.9,8.9h1.4l1.9-8.8l0.2,8.8h1.8l-0.2-12.7h-2.4l-1.9,8.8l-1.9-8.8h-2.5L192,58.9z M185.9,58.9h2.4v-11h2v-1.7h-6.5v1.7
		h2.1V58.9z M178.5,54.5l0.9-5.3l0.9,5.3H178.5z M175.5,58.9h2.2l0.5-2.9h2.3l0.5,2.9h2.2l-2.6-12.7h-2.6L175.5,58.9z M164.5,58.9
		h1.8l0.2-8.9l1.9,8.9h1.4l1.9-8.8l0.2,8.8h1.8l-0.2-12.7H171l-1.9,8.8l-1.9-8.8h-2.5L164.5,58.9z M159.6,58.9h2.4V46.2h-2.4V58.9z
		 M152,58.9h5.5v-1.6h-3.2v-4.2h2.5v-1.6h-2.5v-3.7h3.1v-1.6H152V58.9z M142,58.9h2.4v-5.7h2.7v5.7h2.4V46.2h-2.4v5.3h-2.7v-5.3H142
		V58.9z"/>
    <path class="st0" d="M463.1,28.6h3.6l0.4-18l3.8,18h2.9l3.8-17.9l0.4,17.9h3.6l-0.5-25.8h-4.9l-3.9,17.9l-3.8-17.9h-5L463.1,28.6z
		 M439.5,28.6h3.6l0.4-18l3.8,18h2.9l3.8-17.9l0.4,17.9h3.6l-0.5-25.8h-4.9l-3.9,17.9L445,2.8h-5L439.5,28.6z M426,19.7l1.8-10.8
		l1.8,10.8H426z M419.9,28.6h4.6l1.1-6h4.6l1.1,6h4.5l-5.3-25.8h-5.2L419.9,28.6z M406.5,13.9V6h1.8c1.3,0,2.3,0.3,2.8,0.9
		c0.5,0.6,0.8,1.6,0.8,3c0,1.4-0.3,2.4-0.9,3c-0.6,0.6-1.6,0.9-2.9,0.9H406.5z M401.7,28.6h4.8V16.8h2.3l3.2,11.8h4.9l-3.7-12.7
		c1.2-0.5,2.1-1.2,2.5-2.2c0.5-1,0.7-2.4,0.7-4c0-2.5-0.7-4.3-2.1-5.3s-3.5-1.5-6.3-1.5h-6.4V28.6z M388.8,29c2.2,0,3.7-1,4.5-2.9
		l0.3,2.5h3.2V15.5h-7.2v3h2.9v2.4c0,1.5-0.2,2.7-0.6,3.4c-0.4,0.8-1.2,1.1-2.3,1.1c-1.1,0-1.9-0.4-2.3-1.1
		c-0.4-0.7-0.6-1.8-0.6-3.3V10.3c0-1,0.1-1.7,0.2-2.3c0.1-0.6,0.4-1.1,0.8-1.5c0.4-0.4,1-0.6,1.8-0.6c0.8,0,1.3,0.1,1.7,0.4
		c0.4,0.3,0.6,0.7,0.8,1.3C392,8.2,392,9,392,9.9v1.5h4.6V10c0-2.5-0.6-4.4-1.7-5.6c-1.1-1.3-3-1.9-5.7-1.9c-2.8,0-4.7,0.7-5.9,2.2
		c-1.1,1.5-1.7,3.7-1.7,6.7v8.7c0,2.9,0.6,5.1,1.7,6.6C384.5,28.2,386.3,29,388.8,29 M369.8,25.5c-1.1,0-1.8-0.3-2.2-1
		c-0.4-0.7-0.6-1.6-0.6-2.9V9.7c0-1.2,0.2-2.2,0.6-2.8c0.4-0.6,1.1-1,2.2-1c1.1,0,1.8,0.3,2.2,1c0.4,0.6,0.5,1.6,0.5,2.8v11.9
		c0,1.3-0.2,2.2-0.6,2.9C371.6,25.2,370.8,25.5,369.8,25.5 M369.8,29c2.7,0,4.7-0.7,5.9-2.2c1.2-1.4,1.8-3.5,1.8-6.3v-9.7
		c0-2.7-0.6-4.8-1.8-6.2c-1.2-1.4-3.1-2.1-5.9-2.1c-2.8,0-4.7,0.7-5.9,2.1c-1.2,1.4-1.8,3.5-1.8,6.2v9.7c0,2.8,0.6,4.9,1.8,6.3
		C365,28.2,367,29,369.8,29 M347.9,13.9V6h1.8c1.3,0,2.3,0.3,2.8,0.9c0.5,0.6,0.8,1.6,0.8,3c0,1.4-0.3,2.4-0.9,3
		c-0.6,0.6-1.6,0.9-2.9,0.9H347.9z M343.1,28.6h4.8V16.8h2.3l3.2,11.8h4.9l-3.7-12.7c1.2-0.5,2.1-1.2,2.5-2.2c0.5-1,0.7-2.4,0.7-4
		c0-2.5-0.7-4.3-2.1-5.3s-3.5-1.5-6.3-1.5h-6.4V28.6z M329.4,13.8V6.1h1.9c1,0,1.7,0.1,2.2,0.4c0.5,0.3,0.8,0.7,0.9,1.2
		c0.2,0.5,0.2,1.3,0.2,2.3c0,1.4-0.2,2.4-0.7,2.9c-0.5,0.5-1.3,0.8-2.7,0.8H329.4z M324.6,28.6h4.8V17.1h2.7c4.8,0,7.1-2.3,7.1-7
		c0-4.9-2.3-7.3-6.8-7.3h-7.8V28.6z M309.4,28.6h11.2v-3.2h-6.4v-8.6h5v-3.3h-5V6.1h6.3V2.8h-11.2V28.6z M294.7,28.6h4.8V16.8h5
		v-3.3h-5V6h6.1V2.8h-10.9V28.6z M279.7,28.6H291v-3.2h-6.5V2.8h-4.8V28.6z M269.6,28.6h4.8V2.8h-4.8V28.6z M249.2,28.6h4.8V16.9
		h5.4v11.7h4.9V2.8h-4.9v10.8H254V2.8h-4.8V28.6z M236.5,28.6h4.9V6.3h4.1V2.8h-13.2v3.5h4.2V28.6z M219.2,13.9V6h1.8
		c1.3,0,2.3,0.3,2.8,0.9c0.5,0.6,0.8,1.6,0.8,3c0,1.4-0.3,2.4-0.9,3c-0.6,0.6-1.6,0.9-2.9,0.9H219.2z M214.4,28.6h4.8V16.8h2.3
		l3.2,11.8h4.9l-3.7-12.7c1.2-0.5,2.1-1.2,2.5-2.2c0.5-1,0.7-2.4,0.7-4c0-2.5-0.7-4.3-2.1-5.3c-1.4-1-3.5-1.5-6.3-1.5h-6.4V28.6z
		 M202,25.5c-1.1,0-1.8-0.3-2.2-1c-0.4-0.7-0.6-1.6-0.6-2.9V9.7c0-1.2,0.2-2.2,0.6-2.8c0.4-0.6,1.1-1,2.2-1c1.1,0,1.8,0.3,2.2,1
		c0.4,0.6,0.5,1.6,0.5,2.8v11.9c0,1.3-0.2,2.2-0.6,2.9C203.8,25.2,203.1,25.5,202,25.5 M202,29c2.7,0,4.7-0.7,5.9-2.2
		c1.2-1.4,1.8-3.5,1.8-6.3v-9.7c0-2.7-0.6-4.8-1.8-6.2c-1.2-1.4-3.1-2.1-5.9-2.1c-2.8,0-4.7,0.7-5.9,2.1c-1.2,1.4-1.8,3.5-1.8,6.2
		v9.7c0,2.8,0.6,4.9,1.8,6.3C197.3,28.2,199.3,29,202,29 M180,28.6h4.8V16.8h5v-3.3h-5V6h6.1V2.8H180V28.6z M167.7,25.5
		c-1.1,0-1.8-0.3-2.2-1c-0.4-0.7-0.6-1.6-0.6-2.9V9.7c0-1.2,0.2-2.2,0.6-2.8s1.1-1,2.2-1s1.8,0.3,2.2,1c0.4,0.6,0.5,1.6,0.5,2.8
		v11.9c0,1.3-0.2,2.2-0.6,2.9C169.5,25.2,168.7,25.5,167.7,25.5 M167.7,29c2.7,0,4.7-0.7,5.9-2.2c1.2-1.4,1.8-3.5,1.8-6.3v-9.7
		c0-2.7-0.6-4.8-1.8-6.2c-1.2-1.4-3.1-2.1-5.9-2.1c-2.8,0-4.7,0.7-5.9,2.1c-1.2,1.4-1.8,3.5-1.8,6.2v9.7c0,2.8,0.6,4.9,1.8,6.3
		C162.9,28.2,164.9,29,167.7,29 M149.7,29c1.3,0,2.5-0.3,3.5-0.8c1-0.5,1.8-1.3,2.3-2.2c0.6-1,0.8-2.1,0.8-3.3c0-1.6-0.4-3-1.1-4.1
		c-0.7-1.2-1.7-2.3-2.9-3.3l-3.3-2.8c-0.8-0.6-1.3-1.2-1.7-1.8c-0.3-0.6-0.5-1.3-0.5-2.1c0-0.7,0.2-1.3,0.6-1.7s0.9-0.7,1.6-0.7
		c1,0,1.6,0.4,2,1.1c0.3,0.7,0.5,1.8,0.6,3.2l4.2-0.7c-0.2-2.1-0.7-3.9-1.7-5.1c-1-1.3-2.6-1.9-4.9-1.9c-2.1,0-3.8,0.6-5,1.7
		c-1.2,1.1-1.8,2.7-1.8,4.7c0,1.4,0.3,2.5,0.8,3.5c0.5,1,1.3,1.9,2.3,2.7l3.4,2.8c1,0.8,1.7,1.6,2.2,2.3c0.5,0.7,0.7,1.6,0.7,2.6
		c0,0.7-0.2,1.3-0.5,1.8c-0.4,0.4-0.9,0.7-1.7,0.7c-1,0-1.7-0.4-2.2-1.3c-0.5-0.9-0.7-2.1-0.8-3.7l-4.2,0.8c0.1,2.6,0.8,4.6,2,5.9
		C145.5,28.3,147.3,29,149.7,29"/>
    <path class="st0" d="M108.2,58.9h11.8L107.8,2.8H93.2L79.7,58.9h11.8c0,0,7.9-42.1,8.5-45.8h0.3C100.8,16.8,108.2,58.9,108.2,58.9" />
    <path class="st0" d="M68.8,58.9L83.1,2.8H69.7l-4.3,24c-1.1,6.3-2.1,13.1-3,19.7h-0.2c-0.8-6.6-2.1-13.4-3.2-19.5L54.7,2.8H41.3
		l13.9,56.1H68.8z"/>
    <path class="st0" d="M14.1,11.6c0.7-0.2,1.6-0.2,2.4-0.2c7.3,0,10.7,7,10.7,18.5c0,15.5-5.1,20.7-10.9,20.7c-0.6,0-1.5,0-2.1-0.2
		V11.6z M1.9,58.7c2.4,0.3,6.2,0.7,10.1,0.7c8.6,0,14.7-1.8,19-5.4c5.5-4.3,8.7-12.4,8.7-23.7c0-10.9-2.8-18.3-8.2-22.7
		c-4-3.3-9.5-5-17.3-5C9.4,2.6,5,3,1.9,3.7V58.7z"/>
  </g>
</svg>
